M48
;DRILL file {KiCad 4.0.3+e1-6302~38~ubuntu14.04.1-stable} date Mon Dec 12 18:04:52 2016
;FORMAT={-:-/ absolute / inch / decimal}
FMAT,2
INCH,TZ
T1C0.012
T2C0.024
%
G90
G05
M72
T1
X5.5315Y-3.1535
X5.5315Y-3.2028
X5.5315Y-3.2539
X5.5315Y-3.3031
X5.5315Y-3.3533
X5.5315Y-3.4035
X5.5315Y-3.4537
X5.7461Y-3.4281
X5.7461Y-3.5217
X5.7677Y-3.378
X5.7677Y-3.5472
X5.7923Y-3.5738
X5.7933Y-3.3287
X5.8159Y-3.2785
X5.8169Y-3.5945
X5.8386Y-3.2283
X5.8396Y-3.6191
X5.8632Y-3.1791
X5.8642Y-3.6417
X5.9252Y-3.1289
X5.9252Y-3.8022
X5.9646Y-3.1033
X6.2795Y-3.0551
T2
X6.3943Y-3.0033
X6.3943Y-3.0533
X6.3943Y-3.1033
X6.3943Y-3.1533
X6.3943Y-3.2033
X6.3943Y-3.2533
X6.3943Y-3.3033
X6.3943Y-3.3533
X6.3943Y-3.4033
X6.3943Y-3.4533
X6.4443Y-3.0033
X6.4443Y-3.0533
X6.4443Y-3.1033
X6.4443Y-3.1533
X6.4443Y-3.2033
X6.4443Y-3.2533
X6.4443Y-3.3033
X6.4443Y-3.3533
X6.4443Y-3.4033
X6.4443Y-3.4533
T0
M30
