G04 #@! TF.FileFunction,Legend,Bot*
%FSLAX46Y46*%
G04 Gerber Fmt 4.6, Leading zero omitted, Abs format (unit mm)*
G04 Created by KiCad (PCBNEW 4.0.3+e1-6302~38~ubuntu14.04.1-stable) date Mon Dec 12 17:42:13 2016*
%MOMM*%
%LPD*%
G01*
G04 APERTURE LIST*
%ADD10C,0.100000*%
%ADD11C,0.150000*%
%ADD12C,0.010000*%
G04 APERTURE END LIST*
D10*
D11*
X148900180Y-97500640D02*
X148900180Y-94300240D01*
X148900180Y-94300240D02*
X147099320Y-94300240D01*
X147099320Y-94300240D02*
X147099320Y-97500640D01*
X160200640Y-97500640D02*
X148900180Y-97500640D01*
X148900180Y-97500640D02*
X148900180Y-103299460D01*
X148900180Y-103299460D02*
X160200640Y-103299460D01*
X160200640Y-103299460D02*
X160200640Y-97500640D01*
X139799360Y-97500640D02*
X147099320Y-97500640D01*
X147099320Y-103299460D02*
X139799360Y-103299460D01*
X147099320Y-97500640D02*
X147099320Y-103299460D01*
X139799360Y-97500640D02*
X139799360Y-103299460D01*
X169950000Y-91450000D02*
X169950000Y-72550000D01*
X164550000Y-91450000D02*
X164550000Y-72550000D01*
D12*
G36*
X142034482Y-72603449D02*
X135903448Y-72603449D01*
X135903448Y-77858621D01*
X136779310Y-77858621D01*
X136779310Y-73479311D01*
X141158620Y-73479311D01*
X141158620Y-77858621D01*
X136779310Y-77858621D01*
X135903448Y-77858621D01*
X135903448Y-78734483D01*
X142034482Y-78734483D01*
X142034482Y-72603449D01*
X142034482Y-72603449D01*
G37*
X142034482Y-72603449D02*
X135903448Y-72603449D01*
X135903448Y-77858621D01*
X136779310Y-77858621D01*
X136779310Y-73479311D01*
X141158620Y-73479311D01*
X141158620Y-77858621D01*
X136779310Y-77858621D01*
X135903448Y-77858621D01*
X135903448Y-78734483D01*
X142034482Y-78734483D01*
X142034482Y-72603449D01*
G36*
X144662068Y-73479311D02*
X145537931Y-73479311D01*
X145537931Y-72603449D01*
X142910344Y-72603449D01*
X142910344Y-74355173D01*
X143786206Y-74355173D01*
X143786206Y-75231035D01*
X144662068Y-75231035D01*
X144662068Y-73479311D01*
X144662068Y-73479311D01*
G37*
X144662068Y-73479311D02*
X145537931Y-73479311D01*
X145537931Y-72603449D01*
X142910344Y-72603449D01*
X142910344Y-74355173D01*
X143786206Y-74355173D01*
X143786206Y-75231035D01*
X144662068Y-75231035D01*
X144662068Y-73479311D01*
G36*
X151668965Y-73479311D02*
X150793103Y-73479311D01*
X150793103Y-74355173D01*
X151668965Y-74355173D01*
X151668965Y-73479311D01*
X151668965Y-73479311D01*
G37*
X151668965Y-73479311D02*
X150793103Y-73479311D01*
X150793103Y-74355173D01*
X151668965Y-74355173D01*
X151668965Y-73479311D01*
G36*
X152544827Y-76106897D02*
X154296551Y-76106897D01*
X154296551Y-74355173D01*
X153420689Y-74355173D01*
X153420689Y-75231035D01*
X152544827Y-75231035D01*
X152544827Y-76106897D01*
X152544827Y-76106897D01*
G37*
X152544827Y-76106897D02*
X154296551Y-76106897D01*
X154296551Y-74355173D01*
X153420689Y-74355173D01*
X153420689Y-75231035D01*
X152544827Y-75231035D01*
X152544827Y-76106897D01*
G36*
X143786206Y-75231035D02*
X142910344Y-75231035D01*
X142910344Y-76106897D01*
X143786206Y-76106897D01*
X143786206Y-75231035D01*
X143786206Y-75231035D01*
G37*
X143786206Y-75231035D02*
X142910344Y-75231035D01*
X142910344Y-76106897D01*
X143786206Y-76106897D01*
X143786206Y-75231035D01*
G36*
X154296551Y-76982759D02*
X153420689Y-76982759D01*
X153420689Y-77858621D01*
X154296551Y-77858621D01*
X154296551Y-76982759D01*
X154296551Y-76982759D01*
G37*
X154296551Y-76982759D02*
X153420689Y-76982759D01*
X153420689Y-77858621D01*
X154296551Y-77858621D01*
X154296551Y-76982759D01*
G36*
X154296551Y-78734483D02*
X153420689Y-78734483D01*
X153420689Y-79610345D01*
X154296551Y-79610345D01*
X154296551Y-78734483D01*
X154296551Y-78734483D01*
G37*
X154296551Y-78734483D02*
X153420689Y-78734483D01*
X153420689Y-79610345D01*
X154296551Y-79610345D01*
X154296551Y-78734483D01*
G36*
X154296551Y-80486207D02*
X152544827Y-80486207D01*
X152544827Y-81362069D01*
X153420689Y-81362069D01*
X153420689Y-83113794D01*
X154296551Y-83113794D01*
X154296551Y-80486207D01*
X154296551Y-80486207D01*
G37*
X154296551Y-80486207D02*
X152544827Y-80486207D01*
X152544827Y-81362069D01*
X153420689Y-81362069D01*
X153420689Y-83113794D01*
X154296551Y-83113794D01*
X154296551Y-80486207D01*
G36*
X137655172Y-83113794D02*
X136779310Y-83113794D01*
X136779310Y-81362069D01*
X135903448Y-81362069D01*
X135903448Y-83989656D01*
X137655172Y-83989656D01*
X137655172Y-83113794D01*
X137655172Y-83113794D01*
G37*
X137655172Y-83113794D02*
X136779310Y-83113794D01*
X136779310Y-81362069D01*
X135903448Y-81362069D01*
X135903448Y-83989656D01*
X137655172Y-83989656D01*
X137655172Y-83113794D01*
G36*
X152544827Y-81362069D02*
X151668965Y-81362069D01*
X151668965Y-82237932D01*
X152544827Y-82237932D01*
X152544827Y-81362069D01*
X152544827Y-81362069D01*
G37*
X152544827Y-81362069D02*
X151668965Y-81362069D01*
X151668965Y-82237932D01*
X152544827Y-82237932D01*
X152544827Y-81362069D01*
G36*
X153420689Y-83113794D02*
X151668965Y-83113794D01*
X151668965Y-83989656D01*
X153420689Y-83989656D01*
X153420689Y-83113794D01*
X153420689Y-83113794D01*
G37*
X153420689Y-83113794D02*
X151668965Y-83113794D01*
X151668965Y-83989656D01*
X153420689Y-83989656D01*
X153420689Y-83113794D01*
G36*
X147289655Y-84865518D02*
X146413793Y-84865518D01*
X146413793Y-85741380D01*
X147289655Y-85741380D01*
X147289655Y-84865518D01*
X147289655Y-84865518D01*
G37*
X147289655Y-84865518D02*
X146413793Y-84865518D01*
X146413793Y-85741380D01*
X147289655Y-85741380D01*
X147289655Y-84865518D01*
G36*
X146413793Y-85741380D02*
X145537931Y-85741380D01*
X145537931Y-86617242D01*
X146413793Y-86617242D01*
X146413793Y-85741380D01*
X146413793Y-85741380D01*
G37*
X146413793Y-85741380D02*
X145537931Y-85741380D01*
X145537931Y-86617242D01*
X146413793Y-86617242D01*
X146413793Y-85741380D01*
G36*
X144662068Y-87493104D02*
X143786206Y-87493104D01*
X143786206Y-88368966D01*
X142910344Y-88368966D01*
X142910344Y-90120690D01*
X143786206Y-90120690D01*
X143786206Y-90996552D01*
X144662068Y-90996552D01*
X144662068Y-87493104D01*
X144662068Y-87493104D01*
G37*
X144662068Y-87493104D02*
X143786206Y-87493104D01*
X143786206Y-88368966D01*
X142910344Y-88368966D01*
X142910344Y-90120690D01*
X143786206Y-90120690D01*
X143786206Y-90996552D01*
X144662068Y-90996552D01*
X144662068Y-87493104D01*
G36*
X137655172Y-80486207D02*
X138531034Y-80486207D01*
X138531034Y-79610345D01*
X135903448Y-79610345D01*
X135903448Y-80486207D01*
X136779310Y-80486207D01*
X136779310Y-81362069D01*
X137655172Y-81362069D01*
X137655172Y-80486207D01*
X137655172Y-80486207D01*
G37*
X137655172Y-80486207D02*
X138531034Y-80486207D01*
X138531034Y-79610345D01*
X135903448Y-79610345D01*
X135903448Y-80486207D01*
X136779310Y-80486207D01*
X136779310Y-81362069D01*
X137655172Y-81362069D01*
X137655172Y-80486207D01*
G36*
X152544827Y-74355173D02*
X151668965Y-74355173D01*
X151668965Y-75231035D01*
X152544827Y-75231035D01*
X152544827Y-74355173D01*
X152544827Y-74355173D01*
G37*
X152544827Y-74355173D02*
X151668965Y-74355173D01*
X151668965Y-75231035D01*
X152544827Y-75231035D01*
X152544827Y-74355173D01*
G36*
X153420689Y-78734483D02*
X153420689Y-77858621D01*
X150793103Y-77858621D01*
X150793103Y-76982759D01*
X151668965Y-76982759D01*
X151668965Y-76106897D01*
X150793103Y-76106897D01*
X150793103Y-74355173D01*
X149917241Y-74355173D01*
X149917241Y-73479311D01*
X149041379Y-73479311D01*
X149041379Y-72603449D01*
X148165517Y-72603449D01*
X148165517Y-73479311D01*
X147289655Y-73479311D01*
X147289655Y-72603449D01*
X146413793Y-72603449D01*
X146413793Y-74355173D01*
X148165517Y-74355173D01*
X148165517Y-73479311D01*
X149041379Y-73479311D01*
X149041379Y-74355173D01*
X148165517Y-74355173D01*
X146413793Y-74355173D01*
X145537931Y-74355173D01*
X145537931Y-75231035D01*
X146413793Y-75231035D01*
X146413793Y-76106897D01*
X145537931Y-76106897D01*
X145537931Y-76982759D01*
X146413793Y-76982759D01*
X146413793Y-77858621D01*
X144662068Y-77858621D01*
X144662068Y-76106897D01*
X143786206Y-76106897D01*
X143786206Y-77858621D01*
X142910344Y-77858621D01*
X142910344Y-78734483D01*
X143786206Y-78734483D01*
X143786206Y-77858621D01*
X144662068Y-77858621D01*
X144662068Y-78734483D01*
X143786206Y-78734483D01*
X142910344Y-78734483D01*
X142910344Y-79610345D01*
X140282758Y-79610345D01*
X140282758Y-81362069D01*
X141158620Y-81362069D01*
X141158620Y-80486207D01*
X142034482Y-80486207D01*
X142034482Y-81362069D01*
X141158620Y-81362069D01*
X140282758Y-81362069D01*
X137655172Y-81362069D01*
X137655172Y-82237932D01*
X142034482Y-82237932D01*
X142034482Y-83113794D01*
X141158620Y-83113794D01*
X141158620Y-83989656D01*
X142910344Y-83989656D01*
X142910344Y-82237932D01*
X143786206Y-82237932D01*
X143786206Y-81362069D01*
X142910344Y-81362069D01*
X142910344Y-79610345D01*
X144662068Y-79610345D01*
X144662068Y-78734483D01*
X145537931Y-78734483D01*
X147289655Y-78734483D01*
X147289655Y-75231035D01*
X148165517Y-75231035D01*
X149041379Y-75231035D01*
X149041379Y-74355173D01*
X149917241Y-74355173D01*
X149917241Y-75231035D01*
X149041379Y-75231035D01*
X148165517Y-75231035D01*
X148165517Y-76106897D01*
X149041379Y-76106897D01*
X149041379Y-76982759D01*
X149917241Y-76982759D01*
X149917241Y-78734483D01*
X147289655Y-78734483D01*
X145537931Y-78734483D01*
X145537931Y-79610345D01*
X144662068Y-79610345D01*
X144662068Y-80486207D01*
X146413793Y-80486207D01*
X146413793Y-79610345D01*
X149041379Y-79610345D01*
X149041379Y-80486207D01*
X148165517Y-80486207D01*
X148165517Y-81362069D01*
X149041379Y-81362069D01*
X149041379Y-80486207D01*
X149917241Y-80486207D01*
X149917241Y-81362069D01*
X149041379Y-81362069D01*
X148165517Y-81362069D01*
X147289655Y-81362069D01*
X147289655Y-80486207D01*
X146413793Y-80486207D01*
X146413793Y-81362069D01*
X144662068Y-81362069D01*
X144662068Y-82237932D01*
X145537931Y-82237932D01*
X145537931Y-83113794D01*
X143786206Y-83113794D01*
X143786206Y-83989656D01*
X142910344Y-83989656D01*
X142910344Y-87493104D01*
X143786206Y-87493104D01*
X143786206Y-84865518D01*
X144662068Y-84865518D01*
X144662068Y-85741380D01*
X145537931Y-85741380D01*
X145537931Y-83113794D01*
X146413793Y-83113794D01*
X146413793Y-83989656D01*
X147289655Y-83989656D01*
X147289655Y-83113794D01*
X148165517Y-83113794D01*
X148165517Y-82237932D01*
X149917241Y-82237932D01*
X149917241Y-83113794D01*
X148165517Y-83113794D01*
X148165517Y-83989656D01*
X150793103Y-83989656D01*
X150793103Y-82237932D01*
X149917241Y-82237932D01*
X149917241Y-81362069D01*
X151668965Y-81362069D01*
X151668965Y-79610345D01*
X150793103Y-79610345D01*
X150793103Y-80486207D01*
X149917241Y-80486207D01*
X149917241Y-78734483D01*
X153420689Y-78734483D01*
X153420689Y-78734483D01*
G37*
X153420689Y-78734483D02*
X153420689Y-77858621D01*
X150793103Y-77858621D01*
X150793103Y-76982759D01*
X151668965Y-76982759D01*
X151668965Y-76106897D01*
X150793103Y-76106897D01*
X150793103Y-74355173D01*
X149917241Y-74355173D01*
X149917241Y-73479311D01*
X149041379Y-73479311D01*
X149041379Y-72603449D01*
X148165517Y-72603449D01*
X148165517Y-73479311D01*
X147289655Y-73479311D01*
X147289655Y-72603449D01*
X146413793Y-72603449D01*
X146413793Y-74355173D01*
X148165517Y-74355173D01*
X148165517Y-73479311D01*
X149041379Y-73479311D01*
X149041379Y-74355173D01*
X148165517Y-74355173D01*
X146413793Y-74355173D01*
X145537931Y-74355173D01*
X145537931Y-75231035D01*
X146413793Y-75231035D01*
X146413793Y-76106897D01*
X145537931Y-76106897D01*
X145537931Y-76982759D01*
X146413793Y-76982759D01*
X146413793Y-77858621D01*
X144662068Y-77858621D01*
X144662068Y-76106897D01*
X143786206Y-76106897D01*
X143786206Y-77858621D01*
X142910344Y-77858621D01*
X142910344Y-78734483D01*
X143786206Y-78734483D01*
X143786206Y-77858621D01*
X144662068Y-77858621D01*
X144662068Y-78734483D01*
X143786206Y-78734483D01*
X142910344Y-78734483D01*
X142910344Y-79610345D01*
X140282758Y-79610345D01*
X140282758Y-81362069D01*
X141158620Y-81362069D01*
X141158620Y-80486207D01*
X142034482Y-80486207D01*
X142034482Y-81362069D01*
X141158620Y-81362069D01*
X140282758Y-81362069D01*
X137655172Y-81362069D01*
X137655172Y-82237932D01*
X142034482Y-82237932D01*
X142034482Y-83113794D01*
X141158620Y-83113794D01*
X141158620Y-83989656D01*
X142910344Y-83989656D01*
X142910344Y-82237932D01*
X143786206Y-82237932D01*
X143786206Y-81362069D01*
X142910344Y-81362069D01*
X142910344Y-79610345D01*
X144662068Y-79610345D01*
X144662068Y-78734483D01*
X145537931Y-78734483D01*
X147289655Y-78734483D01*
X147289655Y-75231035D01*
X148165517Y-75231035D01*
X149041379Y-75231035D01*
X149041379Y-74355173D01*
X149917241Y-74355173D01*
X149917241Y-75231035D01*
X149041379Y-75231035D01*
X148165517Y-75231035D01*
X148165517Y-76106897D01*
X149041379Y-76106897D01*
X149041379Y-76982759D01*
X149917241Y-76982759D01*
X149917241Y-78734483D01*
X147289655Y-78734483D01*
X145537931Y-78734483D01*
X145537931Y-79610345D01*
X144662068Y-79610345D01*
X144662068Y-80486207D01*
X146413793Y-80486207D01*
X146413793Y-79610345D01*
X149041379Y-79610345D01*
X149041379Y-80486207D01*
X148165517Y-80486207D01*
X148165517Y-81362069D01*
X149041379Y-81362069D01*
X149041379Y-80486207D01*
X149917241Y-80486207D01*
X149917241Y-81362069D01*
X149041379Y-81362069D01*
X148165517Y-81362069D01*
X147289655Y-81362069D01*
X147289655Y-80486207D01*
X146413793Y-80486207D01*
X146413793Y-81362069D01*
X144662068Y-81362069D01*
X144662068Y-82237932D01*
X145537931Y-82237932D01*
X145537931Y-83113794D01*
X143786206Y-83113794D01*
X143786206Y-83989656D01*
X142910344Y-83989656D01*
X142910344Y-87493104D01*
X143786206Y-87493104D01*
X143786206Y-84865518D01*
X144662068Y-84865518D01*
X144662068Y-85741380D01*
X145537931Y-85741380D01*
X145537931Y-83113794D01*
X146413793Y-83113794D01*
X146413793Y-83989656D01*
X147289655Y-83989656D01*
X147289655Y-83113794D01*
X148165517Y-83113794D01*
X148165517Y-82237932D01*
X149917241Y-82237932D01*
X149917241Y-83113794D01*
X148165517Y-83113794D01*
X148165517Y-83989656D01*
X150793103Y-83989656D01*
X150793103Y-82237932D01*
X149917241Y-82237932D01*
X149917241Y-81362069D01*
X151668965Y-81362069D01*
X151668965Y-79610345D01*
X150793103Y-79610345D01*
X150793103Y-80486207D01*
X149917241Y-80486207D01*
X149917241Y-78734483D01*
X153420689Y-78734483D01*
G36*
X153420689Y-72603449D02*
X152544827Y-72603449D01*
X152544827Y-73479311D01*
X153420689Y-73479311D01*
X153420689Y-72603449D01*
X153420689Y-72603449D01*
G37*
X153420689Y-72603449D02*
X152544827Y-72603449D01*
X152544827Y-73479311D01*
X153420689Y-73479311D01*
X153420689Y-72603449D01*
G36*
X139406896Y-83113794D02*
X138531034Y-83113794D01*
X138531034Y-83989656D01*
X139406896Y-83989656D01*
X139406896Y-83113794D01*
X139406896Y-83113794D01*
G37*
X139406896Y-83113794D02*
X138531034Y-83113794D01*
X138531034Y-83989656D01*
X139406896Y-83989656D01*
X139406896Y-83113794D01*
G36*
X142034482Y-84865518D02*
X135903448Y-84865518D01*
X135903448Y-90120690D01*
X136779310Y-90120690D01*
X136779310Y-85741380D01*
X141158620Y-85741380D01*
X141158620Y-90120690D01*
X136779310Y-90120690D01*
X135903448Y-90120690D01*
X135903448Y-90996552D01*
X142034482Y-90996552D01*
X142034482Y-84865518D01*
X142034482Y-84865518D01*
G37*
X142034482Y-84865518D02*
X135903448Y-84865518D01*
X135903448Y-90120690D01*
X136779310Y-90120690D01*
X136779310Y-85741380D01*
X141158620Y-85741380D01*
X141158620Y-90120690D01*
X136779310Y-90120690D01*
X135903448Y-90120690D01*
X135903448Y-90996552D01*
X142034482Y-90996552D01*
X142034482Y-84865518D01*
G36*
X154296551Y-84865518D02*
X148165517Y-84865518D01*
X148165517Y-90120690D01*
X149041379Y-90120690D01*
X149041379Y-85741380D01*
X153420689Y-85741380D01*
X153420689Y-90120690D01*
X149041379Y-90120690D01*
X148165517Y-90120690D01*
X148165517Y-90996552D01*
X154296551Y-90996552D01*
X154296551Y-84865518D01*
X154296551Y-84865518D01*
G37*
X154296551Y-84865518D02*
X148165517Y-84865518D01*
X148165517Y-90120690D01*
X149041379Y-90120690D01*
X149041379Y-85741380D01*
X153420689Y-85741380D01*
X153420689Y-90120690D01*
X149041379Y-90120690D01*
X148165517Y-90120690D01*
X148165517Y-90996552D01*
X154296551Y-90996552D01*
X154296551Y-84865518D01*
G36*
X147289655Y-88368966D02*
X146413793Y-88368966D01*
X146413793Y-89244828D01*
X147289655Y-89244828D01*
X147289655Y-88368966D01*
X147289655Y-88368966D01*
G37*
X147289655Y-88368966D02*
X146413793Y-88368966D01*
X146413793Y-89244828D01*
X147289655Y-89244828D01*
X147289655Y-88368966D01*
G36*
X146413793Y-89244828D02*
X145537931Y-89244828D01*
X145537931Y-90120690D01*
X146413793Y-90120690D01*
X146413793Y-89244828D01*
X146413793Y-89244828D01*
G37*
X146413793Y-89244828D02*
X145537931Y-89244828D01*
X145537931Y-90120690D01*
X146413793Y-90120690D01*
X146413793Y-89244828D01*
G36*
X147289655Y-90120690D02*
X146413793Y-90120690D01*
X146413793Y-90996552D01*
X147289655Y-90996552D01*
X147289655Y-90120690D01*
X147289655Y-90120690D01*
G37*
X147289655Y-90120690D02*
X146413793Y-90120690D01*
X146413793Y-90996552D01*
X147289655Y-90996552D01*
X147289655Y-90120690D01*
G36*
X140282758Y-74355173D02*
X137655172Y-74355173D01*
X137655172Y-76982759D01*
X140282758Y-76982759D01*
X140282758Y-74355173D01*
X140282758Y-74355173D01*
G37*
X140282758Y-74355173D02*
X137655172Y-74355173D01*
X137655172Y-76982759D01*
X140282758Y-76982759D01*
X140282758Y-74355173D01*
G36*
X144662068Y-80486207D02*
X143786206Y-80486207D01*
X143786206Y-81362069D01*
X144662068Y-81362069D01*
X144662068Y-80486207D01*
X144662068Y-80486207D01*
G37*
X144662068Y-80486207D02*
X143786206Y-80486207D01*
X143786206Y-81362069D01*
X144662068Y-81362069D01*
X144662068Y-80486207D01*
G36*
X140282758Y-86617242D02*
X137655172Y-86617242D01*
X137655172Y-89244828D01*
X140282758Y-89244828D01*
X140282758Y-86617242D01*
X140282758Y-86617242D01*
G37*
X140282758Y-86617242D02*
X137655172Y-86617242D01*
X137655172Y-89244828D01*
X140282758Y-89244828D01*
X140282758Y-86617242D01*
G36*
X152544827Y-86617242D02*
X149917241Y-86617242D01*
X149917241Y-89244828D01*
X152544827Y-89244828D01*
X152544827Y-86617242D01*
X152544827Y-86617242D01*
G37*
X152544827Y-86617242D02*
X149917241Y-86617242D01*
X149917241Y-89244828D01*
X152544827Y-89244828D01*
X152544827Y-86617242D01*
D11*
X154778333Y-95642381D02*
X154778333Y-96356667D01*
X154825953Y-96499524D01*
X154921191Y-96594762D01*
X155064048Y-96642381D01*
X155159286Y-96642381D01*
X153778333Y-96642381D02*
X154349762Y-96642381D01*
X154064048Y-96642381D02*
X154064048Y-95642381D01*
X154159286Y-95785238D01*
X154254524Y-95880476D01*
X154349762Y-95928095D01*
X162502381Y-90429667D02*
X163216667Y-90429667D01*
X163359524Y-90382047D01*
X163454762Y-90286809D01*
X163502381Y-90143952D01*
X163502381Y-90048714D01*
X162597619Y-90858238D02*
X162550000Y-90905857D01*
X162502381Y-91001095D01*
X162502381Y-91239191D01*
X162550000Y-91334429D01*
X162597619Y-91382048D01*
X162692857Y-91429667D01*
X162788095Y-91429667D01*
X162930952Y-91382048D01*
X163502381Y-90810619D01*
X163502381Y-91429667D01*
M02*
