G04 #@! TF.FileFunction,Legend,Bot*
%FSLAX46Y46*%
G04 Gerber Fmt 4.6, Leading zero omitted, Abs format (unit mm)*
G04 Created by KiCad (PCBNEW 4.0.6-e0-6349~53~ubuntu14.04.1) date Sat Apr 15 21:56:29 2017*
%MOMM*%
%LPD*%
G01*
G04 APERTURE LIST*
%ADD10C,0.100000*%
%ADD11C,0.150000*%
G04 APERTURE END LIST*
D10*
D11*
X148900180Y-97500640D02*
X148900180Y-94300240D01*
X148900180Y-94300240D02*
X147099320Y-94300240D01*
X147099320Y-94300240D02*
X147099320Y-97500640D01*
X160200640Y-97500640D02*
X148900180Y-97500640D01*
X148900180Y-97500640D02*
X148900180Y-103299460D01*
X148900180Y-103299460D02*
X160200640Y-103299460D01*
X160200640Y-103299460D02*
X160200640Y-97500640D01*
X139799360Y-97500640D02*
X147099320Y-97500640D01*
X147099320Y-103299460D02*
X139799360Y-103299460D01*
X147099320Y-97500640D02*
X147099320Y-103299460D01*
X139799360Y-97500640D02*
X139799360Y-103299460D01*
X169950000Y-91450000D02*
X169950000Y-72550000D01*
X164550000Y-91450000D02*
X164550000Y-72550000D01*
X162502381Y-90429667D02*
X163216667Y-90429667D01*
X163359524Y-90382047D01*
X163454762Y-90286809D01*
X163502381Y-90143952D01*
X163502381Y-90048714D01*
X162597619Y-90858238D02*
X162550000Y-90905857D01*
X162502381Y-91001095D01*
X162502381Y-91239191D01*
X162550000Y-91334429D01*
X162597619Y-91382048D01*
X162692857Y-91429667D01*
X162788095Y-91429667D01*
X162930952Y-91382048D01*
X163502381Y-90810619D01*
X163502381Y-91429667D01*
M02*
