G04 #@! TF.FileFunction,Copper,L1,Top,Signal*
%FSLAX46Y46*%
G04 Gerber Fmt 4.6, Leading zero omitted, Abs format (unit mm)*
G04 Created by KiCad (PCBNEW 4.0.2+e4-6225~38~ubuntu14.04.1-stable) date Sat 30 Jul 2016 11:20:58 AM PDT*
%MOMM*%
G01*
G04 APERTURE LIST*
%ADD10C,0.100000*%
%ADD11R,0.650240X3.599180*%
%ADD12R,0.650240X4.599940*%
%ADD13O,0.650240X0.650240*%
%ADD14C,0.750000*%
%ADD15C,0.300000*%
%ADD16C,0.150000*%
%ADD17C,0.200000*%
G04 APERTURE END LIST*
D10*
D11*
X159499600Y-99499620D03*
D12*
X158498840Y-100000000D03*
X157500620Y-100000000D03*
X156499860Y-100000000D03*
X155499100Y-100000000D03*
X154500880Y-100000000D03*
X153500120Y-100000000D03*
X152499360Y-100000000D03*
X151501140Y-100000000D03*
X150500380Y-100000000D03*
X149499620Y-100000000D03*
X144500900Y-100000000D03*
X143500140Y-100000000D03*
X142499380Y-100000000D03*
X141501160Y-100000000D03*
X140500400Y-100000000D03*
X146499880Y-100000000D03*
X145499120Y-100000000D03*
D13*
X156499860Y-102301240D03*
X155499100Y-102301240D03*
X154500880Y-102301240D03*
X153500120Y-102301240D03*
X152499360Y-102301240D03*
X151501140Y-102301240D03*
X150500380Y-102301240D03*
X144500900Y-102301240D03*
X143500140Y-102301240D03*
X157500620Y-102301240D03*
X145499120Y-102301240D03*
X142499380Y-102301240D03*
X149499620Y-102301240D03*
X146499880Y-102301240D03*
X141501160Y-102301240D03*
X140500400Y-102301240D03*
X158498840Y-102301240D03*
D14*
X163685000Y-87715000D03*
X162415000Y-87715000D03*
X163685000Y-76285000D03*
X163685000Y-86445000D03*
X162415000Y-86445000D03*
X163685000Y-85175000D03*
X162415000Y-85175000D03*
X163685000Y-83905000D03*
X162415000Y-83905000D03*
X163685000Y-82635000D03*
X162415000Y-82635000D03*
X163685000Y-81365000D03*
X162415000Y-81365000D03*
X163685000Y-80095000D03*
X162415000Y-80095000D03*
X163685000Y-78825000D03*
X162415000Y-78825000D03*
X163685000Y-77555000D03*
X162415000Y-77555000D03*
X162415000Y-76285000D03*
D15*
X158498840Y-100000000D02*
X158999220Y-100000000D01*
X158999220Y-100000000D02*
X159499600Y-99499620D01*
X152499360Y-100000000D02*
X153500120Y-100000000D01*
X153500120Y-100000000D02*
X154500880Y-100000000D01*
X154500880Y-100000000D02*
X155499100Y-100000000D01*
X155499100Y-100000000D02*
X156499860Y-100000000D01*
X156499860Y-100000000D02*
X157500620Y-100000000D01*
X157500620Y-100000000D02*
X158498840Y-100000000D01*
X153500120Y-100000000D02*
X153500120Y-90849880D01*
X153500120Y-90849880D02*
X156635000Y-87715000D01*
X156635000Y-87715000D02*
X162415000Y-87715000D01*
X152499360Y-100000000D02*
X152499360Y-90200640D01*
X156255000Y-86445000D02*
X162415000Y-86445000D01*
X152499360Y-90200640D02*
X156255000Y-86445000D01*
D16*
X158498840Y-100000000D02*
X158498840Y-102301240D01*
X157500620Y-100000000D02*
X157500620Y-102301240D01*
X156499860Y-100000000D02*
X156499860Y-102301240D01*
X155499100Y-100000000D02*
X155499100Y-102301240D01*
X154500880Y-100000000D02*
X154500880Y-102301240D01*
X153500120Y-100000000D02*
X153500120Y-102301240D01*
X152499360Y-100000000D02*
X152499360Y-102301240D01*
D15*
X151501140Y-100000000D02*
X150500380Y-100000000D01*
X150500380Y-100000000D02*
X149499620Y-100000000D01*
X149499620Y-100000000D02*
X149499620Y-88400380D01*
X152725000Y-85175000D02*
X162415000Y-85175000D01*
X149499620Y-88400380D02*
X152725000Y-85175000D01*
D16*
X151501140Y-100000000D02*
X151501140Y-102301240D01*
X150500380Y-100000000D02*
X150500380Y-102301240D01*
X149499620Y-100000000D02*
X149499620Y-102301240D01*
X144500900Y-100000000D02*
X144500900Y-84249100D01*
X147385000Y-81365000D02*
X162415000Y-81365000D01*
X144500900Y-84249100D02*
X147385000Y-81365000D01*
X144500900Y-100000000D02*
X144500900Y-102301240D01*
X143500140Y-100000000D02*
X143500140Y-83249860D01*
X146655000Y-80095000D02*
X162415000Y-80095000D01*
X143500140Y-83249860D02*
X146655000Y-80095000D01*
X143500140Y-102301240D02*
X143500140Y-100000000D01*
X142499380Y-102301240D02*
X142499380Y-100000000D01*
X142499380Y-100000000D02*
X142499380Y-82150620D01*
X142499380Y-82150620D02*
X145825000Y-78825000D01*
X145825000Y-78825000D02*
X162415000Y-78825000D01*
X141501160Y-100000000D02*
X141501160Y-81648840D01*
X145595000Y-77555000D02*
X162415000Y-77555000D01*
X141501160Y-81648840D02*
X145595000Y-77555000D01*
X141501160Y-102301240D02*
X141501160Y-100000000D01*
X140500400Y-102301240D02*
X140500400Y-100000000D01*
X140500400Y-100000000D02*
X140500400Y-81399600D01*
X140500400Y-81399600D02*
X145615000Y-76285000D01*
X145615000Y-76285000D02*
X162415000Y-76285000D01*
X146499880Y-100000000D02*
X146499880Y-86250120D01*
X148845000Y-83905000D02*
X162415000Y-83905000D01*
X146499880Y-86250120D02*
X148845000Y-83905000D01*
X146499880Y-100000000D02*
X146499880Y-102301240D01*
X145499120Y-100000000D02*
X145499120Y-85100880D01*
X147965000Y-82635000D02*
X162415000Y-82635000D01*
X145499120Y-85100880D02*
X147965000Y-82635000D01*
X145499120Y-100000000D02*
X145499120Y-102301240D01*
D17*
G36*
X169597716Y-70402284D02*
X169605000Y-70438903D01*
X169605000Y-93061097D01*
X169597716Y-93097716D01*
X169561098Y-93105000D01*
X161100000Y-93105000D01*
X161061843Y-93112590D01*
X161022939Y-93112590D01*
X160659391Y-93184904D01*
X160659390Y-93184904D01*
X160517000Y-93243884D01*
X160208798Y-93449819D01*
X160154309Y-93504309D01*
X160099819Y-93558798D01*
X159893884Y-93867000D01*
X159834904Y-94009390D01*
X159834904Y-94009391D01*
X159762590Y-94372940D01*
X159762590Y-94411843D01*
X159755000Y-94450000D01*
X159755000Y-97373761D01*
X159174480Y-97373761D01*
X159055895Y-97396074D01*
X158999265Y-97432515D01*
X158950897Y-97399466D01*
X158823960Y-97373761D01*
X158173720Y-97373761D01*
X158055135Y-97396074D01*
X157999813Y-97431673D01*
X157952677Y-97399466D01*
X157825740Y-97373761D01*
X157175500Y-97373761D01*
X157056915Y-97396074D01*
X157000285Y-97432515D01*
X156951917Y-97399466D01*
X156824980Y-97373761D01*
X156174740Y-97373761D01*
X156056155Y-97396074D01*
X155999525Y-97432515D01*
X155951157Y-97399466D01*
X155824220Y-97373761D01*
X155173980Y-97373761D01*
X155055395Y-97396074D01*
X155000073Y-97431673D01*
X154952937Y-97399466D01*
X154826000Y-97373761D01*
X154175760Y-97373761D01*
X154057175Y-97396074D01*
X154000545Y-97432515D01*
X153970120Y-97411726D01*
X153970120Y-91044560D01*
X156829680Y-88185000D01*
X161902158Y-88185000D01*
X162020800Y-88303849D01*
X162276149Y-88409879D01*
X162552638Y-88410121D01*
X162808172Y-88304536D01*
X163003849Y-88109200D01*
X163025534Y-88056975D01*
X163378381Y-88056975D01*
X163420937Y-88120983D01*
X163596401Y-88191132D01*
X163785353Y-88188794D01*
X163949063Y-88120983D01*
X163991619Y-88056975D01*
X163685000Y-87750355D01*
X163378381Y-88056975D01*
X163025534Y-88056975D01*
X163109879Y-87853851D01*
X163110078Y-87626401D01*
X163208868Y-87626401D01*
X163211206Y-87815353D01*
X163279017Y-87979063D01*
X163343025Y-88021619D01*
X163649645Y-87715000D01*
X163720355Y-87715000D01*
X164026975Y-88021619D01*
X164090983Y-87979063D01*
X164161132Y-87803599D01*
X164158794Y-87614647D01*
X164090983Y-87450937D01*
X164026975Y-87408381D01*
X163720355Y-87715000D01*
X163649645Y-87715000D01*
X163343025Y-87408381D01*
X163279017Y-87450937D01*
X163208868Y-87626401D01*
X163110078Y-87626401D01*
X163110121Y-87577362D01*
X163025691Y-87373025D01*
X163378381Y-87373025D01*
X163685000Y-87679645D01*
X163991619Y-87373025D01*
X163949063Y-87309017D01*
X163773599Y-87238868D01*
X163584647Y-87241206D01*
X163420937Y-87309017D01*
X163378381Y-87373025D01*
X163025691Y-87373025D01*
X163004536Y-87321828D01*
X162809200Y-87126151D01*
X162698098Y-87080018D01*
X162808172Y-87034536D01*
X163003849Y-86839200D01*
X163025534Y-86786975D01*
X163378381Y-86786975D01*
X163420937Y-86850983D01*
X163596401Y-86921132D01*
X163785353Y-86918794D01*
X163949063Y-86850983D01*
X163991619Y-86786975D01*
X163685000Y-86480355D01*
X163378381Y-86786975D01*
X163025534Y-86786975D01*
X163109879Y-86583851D01*
X163110078Y-86356401D01*
X163208868Y-86356401D01*
X163211206Y-86545353D01*
X163279017Y-86709063D01*
X163343025Y-86751619D01*
X163649645Y-86445000D01*
X163720355Y-86445000D01*
X164026975Y-86751619D01*
X164090983Y-86709063D01*
X164161132Y-86533599D01*
X164158794Y-86344647D01*
X164090983Y-86180937D01*
X164026975Y-86138381D01*
X163720355Y-86445000D01*
X163649645Y-86445000D01*
X163343025Y-86138381D01*
X163279017Y-86180937D01*
X163208868Y-86356401D01*
X163110078Y-86356401D01*
X163110121Y-86307362D01*
X163025691Y-86103025D01*
X163378381Y-86103025D01*
X163685000Y-86409645D01*
X163991619Y-86103025D01*
X163949063Y-86039017D01*
X163773599Y-85968868D01*
X163584647Y-85971206D01*
X163420937Y-86039017D01*
X163378381Y-86103025D01*
X163025691Y-86103025D01*
X163004536Y-86051828D01*
X162809200Y-85856151D01*
X162698098Y-85810018D01*
X162808172Y-85764536D01*
X163003849Y-85569200D01*
X163049982Y-85458098D01*
X163095464Y-85568172D01*
X163290800Y-85763849D01*
X163546149Y-85869879D01*
X163822638Y-85870121D01*
X164078172Y-85764536D01*
X164273849Y-85569200D01*
X164379879Y-85313851D01*
X164380121Y-85037362D01*
X164274536Y-84781828D01*
X164079200Y-84586151D01*
X163968098Y-84540018D01*
X164078172Y-84494536D01*
X164273849Y-84299200D01*
X164379879Y-84043851D01*
X164380121Y-83767362D01*
X164274536Y-83511828D01*
X164079200Y-83316151D01*
X163968098Y-83270018D01*
X164078172Y-83224536D01*
X164273849Y-83029200D01*
X164379879Y-82773851D01*
X164380121Y-82497362D01*
X164274536Y-82241828D01*
X164079200Y-82046151D01*
X163968098Y-82000018D01*
X164078172Y-81954536D01*
X164273849Y-81759200D01*
X164379879Y-81503851D01*
X164380121Y-81227362D01*
X164274536Y-80971828D01*
X164079200Y-80776151D01*
X163968098Y-80730018D01*
X164078172Y-80684536D01*
X164273849Y-80489200D01*
X164379879Y-80233851D01*
X164380121Y-79957362D01*
X164274536Y-79701828D01*
X164079200Y-79506151D01*
X163968098Y-79460018D01*
X164078172Y-79414536D01*
X164273849Y-79219200D01*
X164379879Y-78963851D01*
X164380121Y-78687362D01*
X164274536Y-78431828D01*
X164079200Y-78236151D01*
X163968098Y-78190018D01*
X164078172Y-78144536D01*
X164273849Y-77949200D01*
X164379879Y-77693851D01*
X164380121Y-77417362D01*
X164274536Y-77161828D01*
X164079200Y-76966151D01*
X163968098Y-76920018D01*
X164078172Y-76874536D01*
X164273849Y-76679200D01*
X164379879Y-76423851D01*
X164380121Y-76147362D01*
X164274536Y-75891828D01*
X164079200Y-75696151D01*
X163823851Y-75590121D01*
X163547362Y-75589879D01*
X163291828Y-75695464D01*
X163096151Y-75890800D01*
X163050018Y-76001902D01*
X163004536Y-75891828D01*
X162809200Y-75696151D01*
X162553851Y-75590121D01*
X162277362Y-75589879D01*
X162021828Y-75695464D01*
X161826952Y-75890000D01*
X145615000Y-75890000D01*
X145463840Y-75920068D01*
X145335693Y-76005693D01*
X140221093Y-81120293D01*
X140135468Y-81248440D01*
X140105400Y-81399600D01*
X140105400Y-93865928D01*
X139900181Y-93558798D01*
X139845691Y-93504309D01*
X139791202Y-93449819D01*
X139483000Y-93243884D01*
X139340610Y-93184904D01*
X139340609Y-93184904D01*
X138977060Y-93112590D01*
X138938157Y-93112590D01*
X138900000Y-93105000D01*
X127038903Y-93105000D01*
X126388755Y-92975677D01*
X125870565Y-92629435D01*
X125524323Y-92111245D01*
X125395000Y-91461096D01*
X125395000Y-72038904D01*
X125524323Y-71388755D01*
X125870565Y-70870565D01*
X126388755Y-70524323D01*
X127038903Y-70395000D01*
X169561098Y-70395000D01*
X169597716Y-70402284D01*
X169597716Y-70402284D01*
G37*
X169597716Y-70402284D02*
X169605000Y-70438903D01*
X169605000Y-93061097D01*
X169597716Y-93097716D01*
X169561098Y-93105000D01*
X161100000Y-93105000D01*
X161061843Y-93112590D01*
X161022939Y-93112590D01*
X160659391Y-93184904D01*
X160659390Y-93184904D01*
X160517000Y-93243884D01*
X160208798Y-93449819D01*
X160154309Y-93504309D01*
X160099819Y-93558798D01*
X159893884Y-93867000D01*
X159834904Y-94009390D01*
X159834904Y-94009391D01*
X159762590Y-94372940D01*
X159762590Y-94411843D01*
X159755000Y-94450000D01*
X159755000Y-97373761D01*
X159174480Y-97373761D01*
X159055895Y-97396074D01*
X158999265Y-97432515D01*
X158950897Y-97399466D01*
X158823960Y-97373761D01*
X158173720Y-97373761D01*
X158055135Y-97396074D01*
X157999813Y-97431673D01*
X157952677Y-97399466D01*
X157825740Y-97373761D01*
X157175500Y-97373761D01*
X157056915Y-97396074D01*
X157000285Y-97432515D01*
X156951917Y-97399466D01*
X156824980Y-97373761D01*
X156174740Y-97373761D01*
X156056155Y-97396074D01*
X155999525Y-97432515D01*
X155951157Y-97399466D01*
X155824220Y-97373761D01*
X155173980Y-97373761D01*
X155055395Y-97396074D01*
X155000073Y-97431673D01*
X154952937Y-97399466D01*
X154826000Y-97373761D01*
X154175760Y-97373761D01*
X154057175Y-97396074D01*
X154000545Y-97432515D01*
X153970120Y-97411726D01*
X153970120Y-91044560D01*
X156829680Y-88185000D01*
X161902158Y-88185000D01*
X162020800Y-88303849D01*
X162276149Y-88409879D01*
X162552638Y-88410121D01*
X162808172Y-88304536D01*
X163003849Y-88109200D01*
X163025534Y-88056975D01*
X163378381Y-88056975D01*
X163420937Y-88120983D01*
X163596401Y-88191132D01*
X163785353Y-88188794D01*
X163949063Y-88120983D01*
X163991619Y-88056975D01*
X163685000Y-87750355D01*
X163378381Y-88056975D01*
X163025534Y-88056975D01*
X163109879Y-87853851D01*
X163110078Y-87626401D01*
X163208868Y-87626401D01*
X163211206Y-87815353D01*
X163279017Y-87979063D01*
X163343025Y-88021619D01*
X163649645Y-87715000D01*
X163720355Y-87715000D01*
X164026975Y-88021619D01*
X164090983Y-87979063D01*
X164161132Y-87803599D01*
X164158794Y-87614647D01*
X164090983Y-87450937D01*
X164026975Y-87408381D01*
X163720355Y-87715000D01*
X163649645Y-87715000D01*
X163343025Y-87408381D01*
X163279017Y-87450937D01*
X163208868Y-87626401D01*
X163110078Y-87626401D01*
X163110121Y-87577362D01*
X163025691Y-87373025D01*
X163378381Y-87373025D01*
X163685000Y-87679645D01*
X163991619Y-87373025D01*
X163949063Y-87309017D01*
X163773599Y-87238868D01*
X163584647Y-87241206D01*
X163420937Y-87309017D01*
X163378381Y-87373025D01*
X163025691Y-87373025D01*
X163004536Y-87321828D01*
X162809200Y-87126151D01*
X162698098Y-87080018D01*
X162808172Y-87034536D01*
X163003849Y-86839200D01*
X163025534Y-86786975D01*
X163378381Y-86786975D01*
X163420937Y-86850983D01*
X163596401Y-86921132D01*
X163785353Y-86918794D01*
X163949063Y-86850983D01*
X163991619Y-86786975D01*
X163685000Y-86480355D01*
X163378381Y-86786975D01*
X163025534Y-86786975D01*
X163109879Y-86583851D01*
X163110078Y-86356401D01*
X163208868Y-86356401D01*
X163211206Y-86545353D01*
X163279017Y-86709063D01*
X163343025Y-86751619D01*
X163649645Y-86445000D01*
X163720355Y-86445000D01*
X164026975Y-86751619D01*
X164090983Y-86709063D01*
X164161132Y-86533599D01*
X164158794Y-86344647D01*
X164090983Y-86180937D01*
X164026975Y-86138381D01*
X163720355Y-86445000D01*
X163649645Y-86445000D01*
X163343025Y-86138381D01*
X163279017Y-86180937D01*
X163208868Y-86356401D01*
X163110078Y-86356401D01*
X163110121Y-86307362D01*
X163025691Y-86103025D01*
X163378381Y-86103025D01*
X163685000Y-86409645D01*
X163991619Y-86103025D01*
X163949063Y-86039017D01*
X163773599Y-85968868D01*
X163584647Y-85971206D01*
X163420937Y-86039017D01*
X163378381Y-86103025D01*
X163025691Y-86103025D01*
X163004536Y-86051828D01*
X162809200Y-85856151D01*
X162698098Y-85810018D01*
X162808172Y-85764536D01*
X163003849Y-85569200D01*
X163049982Y-85458098D01*
X163095464Y-85568172D01*
X163290800Y-85763849D01*
X163546149Y-85869879D01*
X163822638Y-85870121D01*
X164078172Y-85764536D01*
X164273849Y-85569200D01*
X164379879Y-85313851D01*
X164380121Y-85037362D01*
X164274536Y-84781828D01*
X164079200Y-84586151D01*
X163968098Y-84540018D01*
X164078172Y-84494536D01*
X164273849Y-84299200D01*
X164379879Y-84043851D01*
X164380121Y-83767362D01*
X164274536Y-83511828D01*
X164079200Y-83316151D01*
X163968098Y-83270018D01*
X164078172Y-83224536D01*
X164273849Y-83029200D01*
X164379879Y-82773851D01*
X164380121Y-82497362D01*
X164274536Y-82241828D01*
X164079200Y-82046151D01*
X163968098Y-82000018D01*
X164078172Y-81954536D01*
X164273849Y-81759200D01*
X164379879Y-81503851D01*
X164380121Y-81227362D01*
X164274536Y-80971828D01*
X164079200Y-80776151D01*
X163968098Y-80730018D01*
X164078172Y-80684536D01*
X164273849Y-80489200D01*
X164379879Y-80233851D01*
X164380121Y-79957362D01*
X164274536Y-79701828D01*
X164079200Y-79506151D01*
X163968098Y-79460018D01*
X164078172Y-79414536D01*
X164273849Y-79219200D01*
X164379879Y-78963851D01*
X164380121Y-78687362D01*
X164274536Y-78431828D01*
X164079200Y-78236151D01*
X163968098Y-78190018D01*
X164078172Y-78144536D01*
X164273849Y-77949200D01*
X164379879Y-77693851D01*
X164380121Y-77417362D01*
X164274536Y-77161828D01*
X164079200Y-76966151D01*
X163968098Y-76920018D01*
X164078172Y-76874536D01*
X164273849Y-76679200D01*
X164379879Y-76423851D01*
X164380121Y-76147362D01*
X164274536Y-75891828D01*
X164079200Y-75696151D01*
X163823851Y-75590121D01*
X163547362Y-75589879D01*
X163291828Y-75695464D01*
X163096151Y-75890800D01*
X163050018Y-76001902D01*
X163004536Y-75891828D01*
X162809200Y-75696151D01*
X162553851Y-75590121D01*
X162277362Y-75589879D01*
X162021828Y-75695464D01*
X161826952Y-75890000D01*
X145615000Y-75890000D01*
X145463840Y-75920068D01*
X145335693Y-76005693D01*
X140221093Y-81120293D01*
X140135468Y-81248440D01*
X140105400Y-81399600D01*
X140105400Y-93865928D01*
X139900181Y-93558798D01*
X139845691Y-93504309D01*
X139791202Y-93449819D01*
X139483000Y-93243884D01*
X139340610Y-93184904D01*
X139340609Y-93184904D01*
X138977060Y-93112590D01*
X138938157Y-93112590D01*
X138900000Y-93105000D01*
X127038903Y-93105000D01*
X126388755Y-92975677D01*
X125870565Y-92629435D01*
X125524323Y-92111245D01*
X125395000Y-91461096D01*
X125395000Y-72038904D01*
X125524323Y-71388755D01*
X125870565Y-70870565D01*
X126388755Y-70524323D01*
X127038903Y-70395000D01*
X169561098Y-70395000D01*
X169597716Y-70402284D01*
M02*
