M48
;DRILL file {KiCad 4.0.2+e4-6225~38~ubuntu14.04.1-stable} date Sat 30 Jul 2016 11:21:00 AM PDT
;FORMAT={-:-/ absolute / inch / decimal}
FMAT,2
INCH,TZ
T1C0.024
%
G90
G05
M72
T1
X6.3943Y-3.0033
X6.3943Y-3.0533
X6.3943Y-3.1033
X6.3943Y-3.1533
X6.3943Y-3.2033
X6.3943Y-3.2533
X6.3943Y-3.3033
X6.3943Y-3.3533
X6.3943Y-3.4033
X6.3943Y-3.4533
X6.4443Y-3.0033
X6.4443Y-3.0533
X6.4443Y-3.1033
X6.4443Y-3.1533
X6.4443Y-3.2033
X6.4443Y-3.2533
X6.4443Y-3.3033
X6.4443Y-3.3533
X6.4443Y-3.4033
X6.4443Y-3.4533
T0
M30
