G04 #@! TF.FileFunction,Legend,Top*
%FSLAX46Y46*%
G04 Gerber Fmt 4.6, Leading zero omitted, Abs format (unit mm)*
G04 Created by KiCad (PCBNEW 4.0.2+e4-6225~38~ubuntu14.04.1-stable) date Sat 30 Jul 2016 11:20:58 AM PDT*
%MOMM*%
G01*
G04 APERTURE LIST*
%ADD10C,0.100000*%
%ADD11C,0.300000*%
%ADD12C,0.150000*%
%ADD13C,0.010000*%
G04 APERTURE END LIST*
D10*
D11*
X140114286Y-74178571D02*
X139614286Y-73464286D01*
X139257143Y-74178571D02*
X139257143Y-72678571D01*
X139828571Y-72678571D01*
X139971429Y-72750000D01*
X140042857Y-72821429D01*
X140114286Y-72964286D01*
X140114286Y-73178571D01*
X140042857Y-73321429D01*
X139971429Y-73392857D01*
X139828571Y-73464286D01*
X139257143Y-73464286D01*
X141542857Y-74178571D02*
X140685714Y-74178571D01*
X141114286Y-74178571D02*
X141114286Y-72678571D01*
X140971429Y-72892857D01*
X140828571Y-73035714D01*
X140685714Y-73107143D01*
X142471428Y-72678571D02*
X142614285Y-72678571D01*
X142757142Y-72750000D01*
X142828571Y-72821429D01*
X142900000Y-72964286D01*
X142971428Y-73250000D01*
X142971428Y-73607143D01*
X142900000Y-73892857D01*
X142828571Y-74035714D01*
X142757142Y-74107143D01*
X142614285Y-74178571D01*
X142471428Y-74178571D01*
X142328571Y-74107143D01*
X142257142Y-74035714D01*
X142185714Y-73892857D01*
X142114285Y-73607143D01*
X142114285Y-73250000D01*
X142185714Y-72964286D01*
X142257142Y-72821429D01*
X142328571Y-72750000D01*
X142471428Y-72678571D01*
X143899999Y-72678571D02*
X144042856Y-72678571D01*
X144185713Y-72750000D01*
X144257142Y-72821429D01*
X144328571Y-72964286D01*
X144399999Y-73250000D01*
X144399999Y-73607143D01*
X144328571Y-73892857D01*
X144257142Y-74035714D01*
X144185713Y-74107143D01*
X144042856Y-74178571D01*
X143899999Y-74178571D01*
X143757142Y-74107143D01*
X143685713Y-74035714D01*
X143614285Y-73892857D01*
X143542856Y-73607143D01*
X143542856Y-73250000D01*
X143614285Y-72964286D01*
X143685713Y-72821429D01*
X143757142Y-72750000D01*
X143899999Y-72678571D01*
X145757142Y-72678571D02*
X145042856Y-72678571D01*
X144971427Y-73392857D01*
X145042856Y-73321429D01*
X145185713Y-73250000D01*
X145542856Y-73250000D01*
X145685713Y-73321429D01*
X145757142Y-73392857D01*
X145828570Y-73535714D01*
X145828570Y-73892857D01*
X145757142Y-74035714D01*
X145685713Y-74107143D01*
X145542856Y-74178571D01*
X145185713Y-74178571D01*
X145042856Y-74107143D01*
X144971427Y-74035714D01*
X147471427Y-73178571D02*
X147828570Y-74178571D01*
X148185712Y-73178571D01*
X149542855Y-74178571D02*
X148685712Y-74178571D01*
X149114284Y-74178571D02*
X149114284Y-72678571D01*
X148971427Y-72892857D01*
X148828569Y-73035714D01*
X148685712Y-73107143D01*
X150185712Y-74035714D02*
X150257140Y-74107143D01*
X150185712Y-74178571D01*
X150114283Y-74107143D01*
X150185712Y-74035714D01*
X150185712Y-74178571D01*
X151185712Y-72678571D02*
X151328569Y-72678571D01*
X151471426Y-72750000D01*
X151542855Y-72821429D01*
X151614284Y-72964286D01*
X151685712Y-73250000D01*
X151685712Y-73607143D01*
X151614284Y-73892857D01*
X151542855Y-74035714D01*
X151471426Y-74107143D01*
X151328569Y-74178571D01*
X151185712Y-74178571D01*
X151042855Y-74107143D01*
X150971426Y-74035714D01*
X150899998Y-73892857D01*
X150828569Y-73607143D01*
X150828569Y-73250000D01*
X150899998Y-72964286D01*
X150971426Y-72821429D01*
X151042855Y-72750000D01*
X151185712Y-72678571D01*
X152328569Y-74035714D02*
X152399997Y-74107143D01*
X152328569Y-74178571D01*
X152257140Y-74107143D01*
X152328569Y-74035714D01*
X152328569Y-74178571D01*
X153328569Y-72678571D02*
X153471426Y-72678571D01*
X153614283Y-72750000D01*
X153685712Y-72821429D01*
X153757141Y-72964286D01*
X153828569Y-73250000D01*
X153828569Y-73607143D01*
X153757141Y-73892857D01*
X153685712Y-74035714D01*
X153614283Y-74107143D01*
X153471426Y-74178571D01*
X153328569Y-74178571D01*
X153185712Y-74107143D01*
X153114283Y-74035714D01*
X153042855Y-73892857D01*
X152971426Y-73607143D01*
X152971426Y-73250000D01*
X153042855Y-72964286D01*
X153114283Y-72821429D01*
X153185712Y-72750000D01*
X153328569Y-72678571D01*
X139757143Y-75792857D02*
X139971429Y-75864286D01*
X140042857Y-75935714D01*
X140114286Y-76078571D01*
X140114286Y-76292857D01*
X140042857Y-76435714D01*
X139971429Y-76507143D01*
X139828571Y-76578571D01*
X139257143Y-76578571D01*
X139257143Y-75078571D01*
X139757143Y-75078571D01*
X139900000Y-75150000D01*
X139971429Y-75221429D01*
X140042857Y-75364286D01*
X140042857Y-75507143D01*
X139971429Y-75650000D01*
X139900000Y-75721429D01*
X139757143Y-75792857D01*
X139257143Y-75792857D01*
X140757143Y-76578571D02*
X140757143Y-75578571D01*
X140757143Y-75864286D02*
X140828571Y-75721429D01*
X140900000Y-75650000D01*
X141042857Y-75578571D01*
X141185714Y-75578571D01*
X142257142Y-76507143D02*
X142114285Y-76578571D01*
X141828571Y-76578571D01*
X141685714Y-76507143D01*
X141614285Y-76364286D01*
X141614285Y-75792857D01*
X141685714Y-75650000D01*
X141828571Y-75578571D01*
X142114285Y-75578571D01*
X142257142Y-75650000D01*
X142328571Y-75792857D01*
X142328571Y-75935714D01*
X141614285Y-76078571D01*
X143614285Y-76578571D02*
X143614285Y-75792857D01*
X143542856Y-75650000D01*
X143399999Y-75578571D01*
X143114285Y-75578571D01*
X142971428Y-75650000D01*
X143614285Y-76507143D02*
X143471428Y-76578571D01*
X143114285Y-76578571D01*
X142971428Y-76507143D01*
X142899999Y-76364286D01*
X142899999Y-76221429D01*
X142971428Y-76078571D01*
X143114285Y-76007143D01*
X143471428Y-76007143D01*
X143614285Y-75935714D01*
X144328571Y-76578571D02*
X144328571Y-75078571D01*
X144471428Y-76007143D02*
X144899999Y-76578571D01*
X144899999Y-75578571D02*
X144328571Y-76150000D01*
X145757143Y-76578571D02*
X145614285Y-76507143D01*
X145542857Y-76435714D01*
X145471428Y-76292857D01*
X145471428Y-75864286D01*
X145542857Y-75721429D01*
X145614285Y-75650000D01*
X145757143Y-75578571D01*
X145971428Y-75578571D01*
X146114285Y-75650000D01*
X146185714Y-75721429D01*
X146257143Y-75864286D01*
X146257143Y-76292857D01*
X146185714Y-76435714D01*
X146114285Y-76507143D01*
X145971428Y-76578571D01*
X145757143Y-76578571D01*
X147542857Y-75578571D02*
X147542857Y-76578571D01*
X146900000Y-75578571D02*
X146900000Y-76364286D01*
X146971428Y-76507143D01*
X147114286Y-76578571D01*
X147328571Y-76578571D01*
X147471428Y-76507143D01*
X147542857Y-76435714D01*
X148042857Y-75578571D02*
X148614286Y-75578571D01*
X148257143Y-75078571D02*
X148257143Y-76364286D01*
X148328571Y-76507143D01*
X148471429Y-76578571D01*
X148614286Y-76578571D01*
X150757143Y-75792857D02*
X150971429Y-75864286D01*
X151042857Y-75935714D01*
X151114286Y-76078571D01*
X151114286Y-76292857D01*
X151042857Y-76435714D01*
X150971429Y-76507143D01*
X150828571Y-76578571D01*
X150257143Y-76578571D01*
X150257143Y-75078571D01*
X150757143Y-75078571D01*
X150900000Y-75150000D01*
X150971429Y-75221429D01*
X151042857Y-75364286D01*
X151042857Y-75507143D01*
X150971429Y-75650000D01*
X150900000Y-75721429D01*
X150757143Y-75792857D01*
X150257143Y-75792857D01*
X151971429Y-76578571D02*
X151828571Y-76507143D01*
X151757143Y-76435714D01*
X151685714Y-76292857D01*
X151685714Y-75864286D01*
X151757143Y-75721429D01*
X151828571Y-75650000D01*
X151971429Y-75578571D01*
X152185714Y-75578571D01*
X152328571Y-75650000D01*
X152400000Y-75721429D01*
X152471429Y-75864286D01*
X152471429Y-76292857D01*
X152400000Y-76435714D01*
X152328571Y-76507143D01*
X152185714Y-76578571D01*
X151971429Y-76578571D01*
X153757143Y-76578571D02*
X153757143Y-75792857D01*
X153685714Y-75650000D01*
X153542857Y-75578571D01*
X153257143Y-75578571D01*
X153114286Y-75650000D01*
X153757143Y-76507143D02*
X153614286Y-76578571D01*
X153257143Y-76578571D01*
X153114286Y-76507143D01*
X153042857Y-76364286D01*
X153042857Y-76221429D01*
X153114286Y-76078571D01*
X153257143Y-76007143D01*
X153614286Y-76007143D01*
X153757143Y-75935714D01*
X154471429Y-76578571D02*
X154471429Y-75578571D01*
X154471429Y-75864286D02*
X154542857Y-75721429D01*
X154614286Y-75650000D01*
X154757143Y-75578571D01*
X154900000Y-75578571D01*
X156042857Y-76578571D02*
X156042857Y-75078571D01*
X156042857Y-76507143D02*
X155900000Y-76578571D01*
X155614286Y-76578571D01*
X155471428Y-76507143D01*
X155400000Y-76435714D01*
X155328571Y-76292857D01*
X155328571Y-75864286D01*
X155400000Y-75721429D01*
X155471428Y-75650000D01*
X155614286Y-75578571D01*
X155900000Y-75578571D01*
X156042857Y-75650000D01*
X139257143Y-77978571D02*
X139257143Y-79478571D01*
X139257143Y-78050000D02*
X139400000Y-77978571D01*
X139685714Y-77978571D01*
X139828571Y-78050000D01*
X139900000Y-78121429D01*
X139971429Y-78264286D01*
X139971429Y-78692857D01*
X139900000Y-78835714D01*
X139828571Y-78907143D01*
X139685714Y-78978571D01*
X139400000Y-78978571D01*
X139257143Y-78907143D01*
X140828572Y-78978571D02*
X140685714Y-78907143D01*
X140614286Y-78764286D01*
X140614286Y-77478571D01*
X142042857Y-77978571D02*
X142042857Y-78978571D01*
X141400000Y-77978571D02*
X141400000Y-78764286D01*
X141471428Y-78907143D01*
X141614286Y-78978571D01*
X141828571Y-78978571D01*
X141971428Y-78907143D01*
X142042857Y-78835714D01*
X143400000Y-77978571D02*
X143400000Y-79192857D01*
X143328571Y-79335714D01*
X143257143Y-79407143D01*
X143114286Y-79478571D01*
X142900000Y-79478571D01*
X142757143Y-79407143D01*
X143400000Y-78907143D02*
X143257143Y-78978571D01*
X142971429Y-78978571D01*
X142828571Y-78907143D01*
X142757143Y-78835714D01*
X142685714Y-78692857D01*
X142685714Y-78264286D01*
X142757143Y-78121429D01*
X142828571Y-78050000D01*
X142971429Y-77978571D01*
X143257143Y-77978571D01*
X143400000Y-78050000D01*
X144757143Y-77978571D02*
X144757143Y-79192857D01*
X144685714Y-79335714D01*
X144614286Y-79407143D01*
X144471429Y-79478571D01*
X144257143Y-79478571D01*
X144114286Y-79407143D01*
X144757143Y-78907143D02*
X144614286Y-78978571D01*
X144328572Y-78978571D01*
X144185714Y-78907143D01*
X144114286Y-78835714D01*
X144042857Y-78692857D01*
X144042857Y-78264286D01*
X144114286Y-78121429D01*
X144185714Y-78050000D01*
X144328572Y-77978571D01*
X144614286Y-77978571D01*
X144757143Y-78050000D01*
X145471429Y-78835714D02*
X145542857Y-78907143D01*
X145471429Y-78978571D01*
X145400000Y-78907143D01*
X145471429Y-78835714D01*
X145471429Y-78978571D01*
X146757143Y-78907143D02*
X146614286Y-78978571D01*
X146328572Y-78978571D01*
X146185715Y-78907143D01*
X146114286Y-78764286D01*
X146114286Y-78192857D01*
X146185715Y-78050000D01*
X146328572Y-77978571D01*
X146614286Y-77978571D01*
X146757143Y-78050000D01*
X146828572Y-78192857D01*
X146828572Y-78335714D01*
X146114286Y-78478571D01*
X148042857Y-78907143D02*
X147900000Y-78978571D01*
X147614286Y-78978571D01*
X147471429Y-78907143D01*
X147400000Y-78764286D01*
X147400000Y-78192857D01*
X147471429Y-78050000D01*
X147614286Y-77978571D01*
X147900000Y-77978571D01*
X148042857Y-78050000D01*
X148114286Y-78192857D01*
X148114286Y-78335714D01*
X147400000Y-78478571D01*
X150614286Y-78978571D02*
X149900000Y-78978571D01*
X149900000Y-77478571D01*
X151757143Y-78978571D02*
X151757143Y-78192857D01*
X151685714Y-78050000D01*
X151542857Y-77978571D01*
X151257143Y-77978571D01*
X151114286Y-78050000D01*
X151757143Y-78907143D02*
X151614286Y-78978571D01*
X151257143Y-78978571D01*
X151114286Y-78907143D01*
X151042857Y-78764286D01*
X151042857Y-78621429D01*
X151114286Y-78478571D01*
X151257143Y-78407143D01*
X151614286Y-78407143D01*
X151757143Y-78335714D01*
X152471429Y-78978571D02*
X152471429Y-77478571D01*
X152471429Y-78050000D02*
X152614286Y-77978571D01*
X152900000Y-77978571D01*
X153042857Y-78050000D01*
X153114286Y-78121429D01*
X153185715Y-78264286D01*
X153185715Y-78692857D01*
X153114286Y-78835714D01*
X153042857Y-78907143D01*
X152900000Y-78978571D01*
X152614286Y-78978571D01*
X152471429Y-78907143D01*
X153757143Y-78907143D02*
X153900000Y-78978571D01*
X154185715Y-78978571D01*
X154328572Y-78907143D01*
X154400000Y-78764286D01*
X154400000Y-78692857D01*
X154328572Y-78550000D01*
X154185715Y-78478571D01*
X153971429Y-78478571D01*
X153828572Y-78407143D01*
X153757143Y-78264286D01*
X153757143Y-78192857D01*
X153828572Y-78050000D01*
X153971429Y-77978571D01*
X154185715Y-77978571D01*
X154328572Y-78050000D01*
X156114286Y-77621429D02*
X156185715Y-77550000D01*
X156328572Y-77478571D01*
X156685715Y-77478571D01*
X156828572Y-77550000D01*
X156900001Y-77621429D01*
X156971429Y-77764286D01*
X156971429Y-77907143D01*
X156900001Y-78121429D01*
X156042858Y-78978571D01*
X156971429Y-78978571D01*
X157900000Y-77478571D02*
X158042857Y-77478571D01*
X158185714Y-77550000D01*
X158257143Y-77621429D01*
X158328572Y-77764286D01*
X158400000Y-78050000D01*
X158400000Y-78407143D01*
X158328572Y-78692857D01*
X158257143Y-78835714D01*
X158185714Y-78907143D01*
X158042857Y-78978571D01*
X157900000Y-78978571D01*
X157757143Y-78907143D01*
X157685714Y-78835714D01*
X157614286Y-78692857D01*
X157542857Y-78407143D01*
X157542857Y-78050000D01*
X157614286Y-77764286D01*
X157685714Y-77621429D01*
X157757143Y-77550000D01*
X157900000Y-77478571D01*
X159828571Y-78978571D02*
X158971428Y-78978571D01*
X159400000Y-78978571D02*
X159400000Y-77478571D01*
X159257143Y-77692857D01*
X159114285Y-77835714D01*
X158971428Y-77907143D01*
X161114285Y-77478571D02*
X160828571Y-77478571D01*
X160685714Y-77550000D01*
X160614285Y-77621429D01*
X160471428Y-77835714D01*
X160399999Y-78121429D01*
X160399999Y-78692857D01*
X160471428Y-78835714D01*
X160542856Y-78907143D01*
X160685714Y-78978571D01*
X160971428Y-78978571D01*
X161114285Y-78907143D01*
X161185714Y-78835714D01*
X161257142Y-78692857D01*
X161257142Y-78335714D01*
X161185714Y-78192857D01*
X161114285Y-78121429D01*
X160971428Y-78050000D01*
X160685714Y-78050000D01*
X160542856Y-78121429D01*
X160471428Y-78192857D01*
X160399999Y-78335714D01*
X139257143Y-81378571D02*
X139257143Y-79878571D01*
X139900000Y-81378571D02*
X139900000Y-80592857D01*
X139828571Y-80450000D01*
X139685714Y-80378571D01*
X139471429Y-80378571D01*
X139328571Y-80450000D01*
X139257143Y-80521429D01*
X140400000Y-80378571D02*
X140971429Y-80378571D01*
X140614286Y-79878571D02*
X140614286Y-81164286D01*
X140685714Y-81307143D01*
X140828572Y-81378571D01*
X140971429Y-81378571D01*
X141257143Y-80378571D02*
X141828572Y-80378571D01*
X141471429Y-79878571D02*
X141471429Y-81164286D01*
X141542857Y-81307143D01*
X141685715Y-81378571D01*
X141828572Y-81378571D01*
X142328572Y-80378571D02*
X142328572Y-81878571D01*
X142328572Y-80450000D02*
X142471429Y-80378571D01*
X142757143Y-80378571D01*
X142900000Y-80450000D01*
X142971429Y-80521429D01*
X143042858Y-80664286D01*
X143042858Y-81092857D01*
X142971429Y-81235714D01*
X142900000Y-81307143D01*
X142757143Y-81378571D01*
X142471429Y-81378571D01*
X142328572Y-81307143D01*
X143685715Y-81235714D02*
X143757143Y-81307143D01*
X143685715Y-81378571D01*
X143614286Y-81307143D01*
X143685715Y-81235714D01*
X143685715Y-81378571D01*
X143685715Y-80450000D02*
X143757143Y-80521429D01*
X143685715Y-80592857D01*
X143614286Y-80521429D01*
X143685715Y-80450000D01*
X143685715Y-80592857D01*
X145471429Y-79807143D02*
X144185715Y-81735714D01*
X147042858Y-79807143D02*
X145757144Y-81735714D01*
X147542859Y-80378571D02*
X147542859Y-81878571D01*
X147542859Y-80450000D02*
X147685716Y-80378571D01*
X147971430Y-80378571D01*
X148114287Y-80450000D01*
X148185716Y-80521429D01*
X148257145Y-80664286D01*
X148257145Y-81092857D01*
X148185716Y-81235714D01*
X148114287Y-81307143D01*
X147971430Y-81378571D01*
X147685716Y-81378571D01*
X147542859Y-81307143D01*
X149114288Y-81378571D02*
X148971430Y-81307143D01*
X148900002Y-81164286D01*
X148900002Y-79878571D01*
X150328573Y-80378571D02*
X150328573Y-81378571D01*
X149685716Y-80378571D02*
X149685716Y-81164286D01*
X149757144Y-81307143D01*
X149900002Y-81378571D01*
X150114287Y-81378571D01*
X150257144Y-81307143D01*
X150328573Y-81235714D01*
X151685716Y-80378571D02*
X151685716Y-81592857D01*
X151614287Y-81735714D01*
X151542859Y-81807143D01*
X151400002Y-81878571D01*
X151185716Y-81878571D01*
X151042859Y-81807143D01*
X151685716Y-81307143D02*
X151542859Y-81378571D01*
X151257145Y-81378571D01*
X151114287Y-81307143D01*
X151042859Y-81235714D01*
X150971430Y-81092857D01*
X150971430Y-80664286D01*
X151042859Y-80521429D01*
X151114287Y-80450000D01*
X151257145Y-80378571D01*
X151542859Y-80378571D01*
X151685716Y-80450000D01*
X153042859Y-80378571D02*
X153042859Y-81592857D01*
X152971430Y-81735714D01*
X152900002Y-81807143D01*
X152757145Y-81878571D01*
X152542859Y-81878571D01*
X152400002Y-81807143D01*
X153042859Y-81307143D02*
X152900002Y-81378571D01*
X152614288Y-81378571D01*
X152471430Y-81307143D01*
X152400002Y-81235714D01*
X152328573Y-81092857D01*
X152328573Y-80664286D01*
X152400002Y-80521429D01*
X152471430Y-80450000D01*
X152614288Y-80378571D01*
X152900002Y-80378571D01*
X153042859Y-80450000D01*
X153757145Y-81235714D02*
X153828573Y-81307143D01*
X153757145Y-81378571D01*
X153685716Y-81307143D01*
X153757145Y-81235714D01*
X153757145Y-81378571D01*
X155042859Y-81307143D02*
X154900002Y-81378571D01*
X154614288Y-81378571D01*
X154471431Y-81307143D01*
X154400002Y-81164286D01*
X154400002Y-80592857D01*
X154471431Y-80450000D01*
X154614288Y-80378571D01*
X154900002Y-80378571D01*
X155042859Y-80450000D01*
X155114288Y-80592857D01*
X155114288Y-80735714D01*
X154400002Y-80878571D01*
X156328573Y-81307143D02*
X156185716Y-81378571D01*
X155900002Y-81378571D01*
X155757145Y-81307143D01*
X155685716Y-81164286D01*
X155685716Y-80592857D01*
X155757145Y-80450000D01*
X155900002Y-80378571D01*
X156185716Y-80378571D01*
X156328573Y-80450000D01*
X156400002Y-80592857D01*
X156400002Y-80735714D01*
X155685716Y-80878571D01*
D12*
X169950000Y-72550000D02*
X169950000Y-91450000D01*
X164550000Y-72550000D02*
X164550000Y-91450000D01*
D13*
G36*
X133613853Y-71330362D02*
X133775154Y-71371820D01*
X133977877Y-71436434D01*
X134204988Y-71517895D01*
X134439449Y-71609894D01*
X134664227Y-71706122D01*
X134802081Y-71770380D01*
X135353760Y-72073994D01*
X135866624Y-72428832D01*
X136337687Y-72831492D01*
X136763962Y-73278573D01*
X137142463Y-73766676D01*
X137470204Y-74292399D01*
X137744197Y-74852342D01*
X137923251Y-75324345D01*
X138093985Y-75934950D01*
X138201482Y-76544603D01*
X138247902Y-77149921D01*
X138235402Y-77747516D01*
X138166142Y-78334003D01*
X138042281Y-78905997D01*
X137865977Y-79460112D01*
X137639389Y-79992963D01*
X137364676Y-80501164D01*
X137043996Y-80981330D01*
X136679509Y-81430075D01*
X136273372Y-81844013D01*
X135827746Y-82219759D01*
X135344788Y-82553928D01*
X134826658Y-82843134D01*
X134275514Y-83083991D01*
X133693515Y-83273114D01*
X133082819Y-83407118D01*
X132738273Y-83455781D01*
X132585140Y-83469177D01*
X132392387Y-83480091D01*
X132185848Y-83487319D01*
X132009987Y-83489679D01*
X131576289Y-83489948D01*
X131576289Y-81460567D01*
X131502642Y-81460274D01*
X131414861Y-81446407D01*
X131283965Y-81409219D01*
X131125425Y-81354601D01*
X130954710Y-81288444D01*
X130787291Y-81216638D01*
X130638637Y-81145074D01*
X130557654Y-81100440D01*
X130369292Y-80971336D01*
X130165361Y-80802830D01*
X129963634Y-80611858D01*
X129781888Y-80415355D01*
X129637897Y-80230254D01*
X129626332Y-80213134D01*
X129411229Y-79832113D01*
X129255488Y-79424878D01*
X129158473Y-78989584D01*
X129133959Y-78785752D01*
X129112363Y-78547422D01*
X130692526Y-78547422D01*
X130692526Y-77041752D01*
X131412629Y-77041752D01*
X131412629Y-78547422D01*
X132754639Y-78547422D01*
X132754639Y-77041752D01*
X133442011Y-77041752D01*
X133442011Y-78547422D01*
X135045877Y-78547422D01*
X135045877Y-78657696D01*
X135036449Y-78791253D01*
X135010955Y-78965968D01*
X134973577Y-79160748D01*
X134928496Y-79354497D01*
X134879895Y-79526121D01*
X134864630Y-79571927D01*
X134706514Y-79933919D01*
X134491364Y-80274612D01*
X134232146Y-80582646D01*
X133915342Y-80875831D01*
X133573599Y-81115654D01*
X133213357Y-81298340D01*
X132841058Y-81420115D01*
X132779188Y-81434035D01*
X132590980Y-81473664D01*
X132590980Y-82440889D01*
X132680993Y-82426221D01*
X133051181Y-82359694D01*
X133372721Y-82287151D01*
X133662419Y-82203538D01*
X133937083Y-82103805D01*
X134213521Y-81982900D01*
X134309408Y-81936805D01*
X134823336Y-81649625D01*
X135293576Y-81314431D01*
X135718332Y-80933509D01*
X136095807Y-80509150D01*
X136424205Y-80043643D01*
X136701731Y-79539277D01*
X136926587Y-78998341D01*
X137096978Y-78423124D01*
X137110125Y-78367396D01*
X137140472Y-78212444D01*
X137163466Y-78037090D01*
X137180385Y-77827915D01*
X137192508Y-77571500D01*
X137195880Y-77467268D01*
X137201563Y-77232629D01*
X137202530Y-77046252D01*
X137197913Y-76891048D01*
X137186842Y-76749928D01*
X137168447Y-76605804D01*
X137144465Y-76456789D01*
X137015236Y-75890021D01*
X136826601Y-75348052D01*
X136581014Y-74834617D01*
X136280928Y-74353453D01*
X135928797Y-73908294D01*
X135527077Y-73502876D01*
X135078220Y-73140935D01*
X134874799Y-73001851D01*
X134606686Y-72840601D01*
X134317100Y-72688924D01*
X134028834Y-72557910D01*
X133764683Y-72458646D01*
X133745369Y-72452438D01*
X133508649Y-72377448D01*
X133507475Y-71308458D01*
X133613853Y-71330362D01*
X133613853Y-71330362D01*
G37*
X133613853Y-71330362D02*
X133775154Y-71371820D01*
X133977877Y-71436434D01*
X134204988Y-71517895D01*
X134439449Y-71609894D01*
X134664227Y-71706122D01*
X134802081Y-71770380D01*
X135353760Y-72073994D01*
X135866624Y-72428832D01*
X136337687Y-72831492D01*
X136763962Y-73278573D01*
X137142463Y-73766676D01*
X137470204Y-74292399D01*
X137744197Y-74852342D01*
X137923251Y-75324345D01*
X138093985Y-75934950D01*
X138201482Y-76544603D01*
X138247902Y-77149921D01*
X138235402Y-77747516D01*
X138166142Y-78334003D01*
X138042281Y-78905997D01*
X137865977Y-79460112D01*
X137639389Y-79992963D01*
X137364676Y-80501164D01*
X137043996Y-80981330D01*
X136679509Y-81430075D01*
X136273372Y-81844013D01*
X135827746Y-82219759D01*
X135344788Y-82553928D01*
X134826658Y-82843134D01*
X134275514Y-83083991D01*
X133693515Y-83273114D01*
X133082819Y-83407118D01*
X132738273Y-83455781D01*
X132585140Y-83469177D01*
X132392387Y-83480091D01*
X132185848Y-83487319D01*
X132009987Y-83489679D01*
X131576289Y-83489948D01*
X131576289Y-81460567D01*
X131502642Y-81460274D01*
X131414861Y-81446407D01*
X131283965Y-81409219D01*
X131125425Y-81354601D01*
X130954710Y-81288444D01*
X130787291Y-81216638D01*
X130638637Y-81145074D01*
X130557654Y-81100440D01*
X130369292Y-80971336D01*
X130165361Y-80802830D01*
X129963634Y-80611858D01*
X129781888Y-80415355D01*
X129637897Y-80230254D01*
X129626332Y-80213134D01*
X129411229Y-79832113D01*
X129255488Y-79424878D01*
X129158473Y-78989584D01*
X129133959Y-78785752D01*
X129112363Y-78547422D01*
X130692526Y-78547422D01*
X130692526Y-77041752D01*
X131412629Y-77041752D01*
X131412629Y-78547422D01*
X132754639Y-78547422D01*
X132754639Y-77041752D01*
X133442011Y-77041752D01*
X133442011Y-78547422D01*
X135045877Y-78547422D01*
X135045877Y-78657696D01*
X135036449Y-78791253D01*
X135010955Y-78965968D01*
X134973577Y-79160748D01*
X134928496Y-79354497D01*
X134879895Y-79526121D01*
X134864630Y-79571927D01*
X134706514Y-79933919D01*
X134491364Y-80274612D01*
X134232146Y-80582646D01*
X133915342Y-80875831D01*
X133573599Y-81115654D01*
X133213357Y-81298340D01*
X132841058Y-81420115D01*
X132779188Y-81434035D01*
X132590980Y-81473664D01*
X132590980Y-82440889D01*
X132680993Y-82426221D01*
X133051181Y-82359694D01*
X133372721Y-82287151D01*
X133662419Y-82203538D01*
X133937083Y-82103805D01*
X134213521Y-81982900D01*
X134309408Y-81936805D01*
X134823336Y-81649625D01*
X135293576Y-81314431D01*
X135718332Y-80933509D01*
X136095807Y-80509150D01*
X136424205Y-80043643D01*
X136701731Y-79539277D01*
X136926587Y-78998341D01*
X137096978Y-78423124D01*
X137110125Y-78367396D01*
X137140472Y-78212444D01*
X137163466Y-78037090D01*
X137180385Y-77827915D01*
X137192508Y-77571500D01*
X137195880Y-77467268D01*
X137201563Y-77232629D01*
X137202530Y-77046252D01*
X137197913Y-76891048D01*
X137186842Y-76749928D01*
X137168447Y-76605804D01*
X137144465Y-76456789D01*
X137015236Y-75890021D01*
X136826601Y-75348052D01*
X136581014Y-74834617D01*
X136280928Y-74353453D01*
X135928797Y-73908294D01*
X135527077Y-73502876D01*
X135078220Y-73140935D01*
X134874799Y-73001851D01*
X134606686Y-72840601D01*
X134317100Y-72688924D01*
X134028834Y-72557910D01*
X133764683Y-72458646D01*
X133745369Y-72452438D01*
X133508649Y-72377448D01*
X133507475Y-71308458D01*
X133613853Y-71330362D01*
G36*
X132598683Y-72147690D02*
X132607346Y-73154113D01*
X132842311Y-73213772D01*
X133244530Y-73348621D01*
X133617037Y-73538747D01*
X133955661Y-73779151D01*
X134256232Y-74064835D01*
X134514580Y-74390800D01*
X134726535Y-74752048D01*
X134887928Y-75143580D01*
X134994588Y-75560398D01*
X135032266Y-75838853D01*
X135054906Y-76092525D01*
X129112939Y-76092525D01*
X129136098Y-75827036D01*
X129204541Y-75400098D01*
X129330966Y-74994352D01*
X129511064Y-74614940D01*
X129740526Y-74267007D01*
X130015046Y-73955695D01*
X130330315Y-73686147D01*
X130682025Y-73463508D01*
X131065868Y-73292919D01*
X131324958Y-73213799D01*
X131559923Y-73154168D01*
X131568999Y-72672601D01*
X131578076Y-72191033D01*
X131405339Y-72213196D01*
X131000820Y-72286074D01*
X130577617Y-72400310D01*
X130160440Y-72548248D01*
X129792397Y-72712940D01*
X129287362Y-73002233D01*
X128823371Y-73341039D01*
X128403110Y-73725820D01*
X128029266Y-74153040D01*
X127704523Y-74619164D01*
X127431568Y-75120654D01*
X127213086Y-75653975D01*
X127051764Y-76215589D01*
X127020018Y-76363292D01*
X126974257Y-76667734D01*
X126948001Y-77012711D01*
X126941250Y-77376264D01*
X126954006Y-77736437D01*
X126986266Y-78071275D01*
X127020018Y-78276655D01*
X127166101Y-78844173D01*
X127370746Y-79386921D01*
X127631490Y-79900451D01*
X127945873Y-80380317D01*
X128311433Y-80822069D01*
X128574617Y-81086004D01*
X128888586Y-81350689D01*
X129243522Y-81601758D01*
X129621710Y-81828693D01*
X130005433Y-82020977D01*
X130376976Y-82168092D01*
X130422487Y-82183040D01*
X130659794Y-82259019D01*
X130659794Y-82792654D01*
X130659249Y-82994717D01*
X130656359Y-83139828D01*
X130649242Y-83236496D01*
X130636013Y-83293228D01*
X130614790Y-83318536D01*
X130583690Y-83320929D01*
X130545232Y-83310368D01*
X130502795Y-83296662D01*
X130411458Y-83267293D01*
X130284661Y-83226582D01*
X130136083Y-83178921D01*
X129554997Y-82959011D01*
X129005587Y-82683805D01*
X128490831Y-82356849D01*
X128013709Y-81981686D01*
X127577199Y-81561859D01*
X127184280Y-81100912D01*
X126837931Y-80602390D01*
X126541131Y-80069837D01*
X126296858Y-79506795D01*
X126108091Y-78916810D01*
X125977809Y-78303424D01*
X125964409Y-78215902D01*
X125937829Y-77970381D01*
X125921282Y-77680713D01*
X125914770Y-77367440D01*
X125918291Y-77051103D01*
X125931845Y-76752247D01*
X125955434Y-76491414D01*
X125964409Y-76424046D01*
X126086750Y-75805436D01*
X126268066Y-75211127D01*
X126505378Y-74644276D01*
X126795706Y-74108038D01*
X127136070Y-73605571D01*
X127523491Y-73140030D01*
X127954989Y-72714571D01*
X128427583Y-72332351D01*
X128938295Y-71996527D01*
X129484146Y-71710253D01*
X130062154Y-71476688D01*
X130669340Y-71298986D01*
X130838752Y-71260814D01*
X130999289Y-71229376D01*
X131152883Y-71205541D01*
X131314994Y-71187847D01*
X131501082Y-71174834D01*
X131726607Y-71165041D01*
X131911312Y-71159450D01*
X132590021Y-71141268D01*
X132598683Y-72147690D01*
X132598683Y-72147690D01*
G37*
X132598683Y-72147690D02*
X132607346Y-73154113D01*
X132842311Y-73213772D01*
X133244530Y-73348621D01*
X133617037Y-73538747D01*
X133955661Y-73779151D01*
X134256232Y-74064835D01*
X134514580Y-74390800D01*
X134726535Y-74752048D01*
X134887928Y-75143580D01*
X134994588Y-75560398D01*
X135032266Y-75838853D01*
X135054906Y-76092525D01*
X129112939Y-76092525D01*
X129136098Y-75827036D01*
X129204541Y-75400098D01*
X129330966Y-74994352D01*
X129511064Y-74614940D01*
X129740526Y-74267007D01*
X130015046Y-73955695D01*
X130330315Y-73686147D01*
X130682025Y-73463508D01*
X131065868Y-73292919D01*
X131324958Y-73213799D01*
X131559923Y-73154168D01*
X131568999Y-72672601D01*
X131578076Y-72191033D01*
X131405339Y-72213196D01*
X131000820Y-72286074D01*
X130577617Y-72400310D01*
X130160440Y-72548248D01*
X129792397Y-72712940D01*
X129287362Y-73002233D01*
X128823371Y-73341039D01*
X128403110Y-73725820D01*
X128029266Y-74153040D01*
X127704523Y-74619164D01*
X127431568Y-75120654D01*
X127213086Y-75653975D01*
X127051764Y-76215589D01*
X127020018Y-76363292D01*
X126974257Y-76667734D01*
X126948001Y-77012711D01*
X126941250Y-77376264D01*
X126954006Y-77736437D01*
X126986266Y-78071275D01*
X127020018Y-78276655D01*
X127166101Y-78844173D01*
X127370746Y-79386921D01*
X127631490Y-79900451D01*
X127945873Y-80380317D01*
X128311433Y-80822069D01*
X128574617Y-81086004D01*
X128888586Y-81350689D01*
X129243522Y-81601758D01*
X129621710Y-81828693D01*
X130005433Y-82020977D01*
X130376976Y-82168092D01*
X130422487Y-82183040D01*
X130659794Y-82259019D01*
X130659794Y-82792654D01*
X130659249Y-82994717D01*
X130656359Y-83139828D01*
X130649242Y-83236496D01*
X130636013Y-83293228D01*
X130614790Y-83318536D01*
X130583690Y-83320929D01*
X130545232Y-83310368D01*
X130502795Y-83296662D01*
X130411458Y-83267293D01*
X130284661Y-83226582D01*
X130136083Y-83178921D01*
X129554997Y-82959011D01*
X129005587Y-82683805D01*
X128490831Y-82356849D01*
X128013709Y-81981686D01*
X127577199Y-81561859D01*
X127184280Y-81100912D01*
X126837931Y-80602390D01*
X126541131Y-80069837D01*
X126296858Y-79506795D01*
X126108091Y-78916810D01*
X125977809Y-78303424D01*
X125964409Y-78215902D01*
X125937829Y-77970381D01*
X125921282Y-77680713D01*
X125914770Y-77367440D01*
X125918291Y-77051103D01*
X125931845Y-76752247D01*
X125955434Y-76491414D01*
X125964409Y-76424046D01*
X126086750Y-75805436D01*
X126268066Y-75211127D01*
X126505378Y-74644276D01*
X126795706Y-74108038D01*
X127136070Y-73605571D01*
X127523491Y-73140030D01*
X127954989Y-72714571D01*
X128427583Y-72332351D01*
X128938295Y-71996527D01*
X129484146Y-71710253D01*
X130062154Y-71476688D01*
X130669340Y-71298986D01*
X130838752Y-71260814D01*
X130999289Y-71229376D01*
X131152883Y-71205541D01*
X131314994Y-71187847D01*
X131501082Y-71174834D01*
X131726607Y-71165041D01*
X131911312Y-71159450D01*
X132590021Y-71141268D01*
X132598683Y-72147690D01*
G36*
X142678161Y-90315517D02*
X140634483Y-90315517D01*
X140634483Y-88563793D01*
X140926437Y-88563793D01*
X140926437Y-90023563D01*
X142386207Y-90023563D01*
X142386207Y-88563793D01*
X140926437Y-88563793D01*
X140634483Y-88563793D01*
X140634483Y-88271839D01*
X142678161Y-88271839D01*
X142678161Y-90315517D01*
X142678161Y-90315517D01*
G37*
X142678161Y-90315517D02*
X140634483Y-90315517D01*
X140634483Y-88563793D01*
X140926437Y-88563793D01*
X140926437Y-90023563D01*
X142386207Y-90023563D01*
X142386207Y-88563793D01*
X140926437Y-88563793D01*
X140634483Y-88563793D01*
X140634483Y-88271839D01*
X142678161Y-88271839D01*
X142678161Y-90315517D01*
G36*
X143554023Y-90023563D02*
X143845977Y-90023563D01*
X143845977Y-90315517D01*
X142970115Y-90315517D01*
X142970115Y-89731609D01*
X143262069Y-89731609D01*
X143262069Y-89439655D01*
X143554023Y-89439655D01*
X143554023Y-90023563D01*
X143554023Y-90023563D01*
G37*
X143554023Y-90023563D02*
X143845977Y-90023563D01*
X143845977Y-90315517D01*
X142970115Y-90315517D01*
X142970115Y-89731609D01*
X143262069Y-89731609D01*
X143262069Y-89439655D01*
X143554023Y-89439655D01*
X143554023Y-90023563D01*
G36*
X145889655Y-90023563D02*
X145597701Y-90023563D01*
X145597701Y-89731609D01*
X145889655Y-89731609D01*
X145889655Y-90023563D01*
X145889655Y-90023563D01*
G37*
X145889655Y-90023563D02*
X145597701Y-90023563D01*
X145597701Y-89731609D01*
X145889655Y-89731609D01*
X145889655Y-90023563D01*
G36*
X146181609Y-89147701D02*
X146765517Y-89147701D01*
X146765517Y-89731609D01*
X146473563Y-89731609D01*
X146473563Y-89439655D01*
X146181609Y-89439655D01*
X146181609Y-89147701D01*
X146181609Y-89147701D01*
G37*
X146181609Y-89147701D02*
X146765517Y-89147701D01*
X146765517Y-89731609D01*
X146473563Y-89731609D01*
X146473563Y-89439655D01*
X146181609Y-89439655D01*
X146181609Y-89147701D01*
G36*
X143262069Y-89439655D02*
X142970115Y-89439655D01*
X142970115Y-89147701D01*
X143262069Y-89147701D01*
X143262069Y-89439655D01*
X143262069Y-89439655D01*
G37*
X143262069Y-89439655D02*
X142970115Y-89439655D01*
X142970115Y-89147701D01*
X143262069Y-89147701D01*
X143262069Y-89439655D01*
G36*
X146765517Y-88855747D02*
X146473563Y-88855747D01*
X146473563Y-88563793D01*
X146765517Y-88563793D01*
X146765517Y-88855747D01*
X146765517Y-88855747D01*
G37*
X146765517Y-88855747D02*
X146473563Y-88855747D01*
X146473563Y-88563793D01*
X146765517Y-88563793D01*
X146765517Y-88855747D01*
G36*
X146765517Y-88271839D02*
X146473563Y-88271839D01*
X146473563Y-87979885D01*
X146765517Y-87979885D01*
X146765517Y-88271839D01*
X146765517Y-88271839D01*
G37*
X146765517Y-88271839D02*
X146473563Y-88271839D01*
X146473563Y-87979885D01*
X146765517Y-87979885D01*
X146765517Y-88271839D01*
G36*
X146765517Y-87687931D02*
X146181609Y-87687931D01*
X146181609Y-87395977D01*
X146473563Y-87395977D01*
X146473563Y-86812069D01*
X146765517Y-86812069D01*
X146765517Y-87687931D01*
X146765517Y-87687931D01*
G37*
X146765517Y-87687931D02*
X146181609Y-87687931D01*
X146181609Y-87395977D01*
X146473563Y-87395977D01*
X146473563Y-86812069D01*
X146765517Y-86812069D01*
X146765517Y-87687931D01*
G36*
X141218391Y-86812069D02*
X140926437Y-86812069D01*
X140926437Y-87395977D01*
X140634483Y-87395977D01*
X140634483Y-86520115D01*
X141218391Y-86520115D01*
X141218391Y-86812069D01*
X141218391Y-86812069D01*
G37*
X141218391Y-86812069D02*
X140926437Y-86812069D01*
X140926437Y-87395977D01*
X140634483Y-87395977D01*
X140634483Y-86520115D01*
X141218391Y-86520115D01*
X141218391Y-86812069D01*
G36*
X146181609Y-87395977D02*
X145889655Y-87395977D01*
X145889655Y-87104023D01*
X146181609Y-87104023D01*
X146181609Y-87395977D01*
X146181609Y-87395977D01*
G37*
X146181609Y-87395977D02*
X145889655Y-87395977D01*
X145889655Y-87104023D01*
X146181609Y-87104023D01*
X146181609Y-87395977D01*
G36*
X146473563Y-86812069D02*
X145889655Y-86812069D01*
X145889655Y-86520115D01*
X146473563Y-86520115D01*
X146473563Y-86812069D01*
X146473563Y-86812069D01*
G37*
X146473563Y-86812069D02*
X145889655Y-86812069D01*
X145889655Y-86520115D01*
X146473563Y-86520115D01*
X146473563Y-86812069D01*
G36*
X144429885Y-86228161D02*
X144137931Y-86228161D01*
X144137931Y-85936207D01*
X144429885Y-85936207D01*
X144429885Y-86228161D01*
X144429885Y-86228161D01*
G37*
X144429885Y-86228161D02*
X144137931Y-86228161D01*
X144137931Y-85936207D01*
X144429885Y-85936207D01*
X144429885Y-86228161D01*
G36*
X144137931Y-85936207D02*
X143845977Y-85936207D01*
X143845977Y-85644253D01*
X144137931Y-85644253D01*
X144137931Y-85936207D01*
X144137931Y-85936207D01*
G37*
X144137931Y-85936207D02*
X143845977Y-85936207D01*
X143845977Y-85644253D01*
X144137931Y-85644253D01*
X144137931Y-85936207D01*
G36*
X143554023Y-85352299D02*
X143262069Y-85352299D01*
X143262069Y-85060345D01*
X142970115Y-85060345D01*
X142970115Y-84476437D01*
X143262069Y-84476437D01*
X143262069Y-84184483D01*
X143554023Y-84184483D01*
X143554023Y-85352299D01*
X143554023Y-85352299D01*
G37*
X143554023Y-85352299D02*
X143262069Y-85352299D01*
X143262069Y-85060345D01*
X142970115Y-85060345D01*
X142970115Y-84476437D01*
X143262069Y-84476437D01*
X143262069Y-84184483D01*
X143554023Y-84184483D01*
X143554023Y-85352299D01*
G36*
X141218391Y-87687931D02*
X141510345Y-87687931D01*
X141510345Y-87979885D01*
X140634483Y-87979885D01*
X140634483Y-87687931D01*
X140926437Y-87687931D01*
X140926437Y-87395977D01*
X141218391Y-87395977D01*
X141218391Y-87687931D01*
X141218391Y-87687931D01*
G37*
X141218391Y-87687931D02*
X141510345Y-87687931D01*
X141510345Y-87979885D01*
X140634483Y-87979885D01*
X140634483Y-87687931D01*
X140926437Y-87687931D01*
X140926437Y-87395977D01*
X141218391Y-87395977D01*
X141218391Y-87687931D01*
G36*
X146181609Y-89731609D02*
X145889655Y-89731609D01*
X145889655Y-89439655D01*
X146181609Y-89439655D01*
X146181609Y-89731609D01*
X146181609Y-89731609D01*
G37*
X146181609Y-89731609D02*
X145889655Y-89731609D01*
X145889655Y-89439655D01*
X146181609Y-89439655D01*
X146181609Y-89731609D01*
G36*
X146473563Y-88271839D02*
X146473563Y-88563793D01*
X145597701Y-88563793D01*
X145597701Y-88855747D01*
X145889655Y-88855747D01*
X145889655Y-89147701D01*
X145597701Y-89147701D01*
X145597701Y-89731609D01*
X145305747Y-89731609D01*
X145305747Y-90023563D01*
X145013793Y-90023563D01*
X145013793Y-90315517D01*
X144721839Y-90315517D01*
X144721839Y-90023563D01*
X144429885Y-90023563D01*
X144429885Y-90315517D01*
X144137931Y-90315517D01*
X144137931Y-89731609D01*
X144721839Y-89731609D01*
X144721839Y-90023563D01*
X145013793Y-90023563D01*
X145013793Y-89731609D01*
X144721839Y-89731609D01*
X144137931Y-89731609D01*
X143845977Y-89731609D01*
X143845977Y-89439655D01*
X144137931Y-89439655D01*
X144137931Y-89147701D01*
X143845977Y-89147701D01*
X143845977Y-88855747D01*
X144137931Y-88855747D01*
X144137931Y-88563793D01*
X143554023Y-88563793D01*
X143554023Y-89147701D01*
X143262069Y-89147701D01*
X143262069Y-88563793D01*
X142970115Y-88563793D01*
X142970115Y-88271839D01*
X143262069Y-88271839D01*
X143262069Y-88563793D01*
X143554023Y-88563793D01*
X143554023Y-88271839D01*
X143262069Y-88271839D01*
X142970115Y-88271839D01*
X142970115Y-87979885D01*
X142094253Y-87979885D01*
X142094253Y-87395977D01*
X142386207Y-87395977D01*
X142386207Y-87687931D01*
X142678161Y-87687931D01*
X142678161Y-87395977D01*
X142386207Y-87395977D01*
X142094253Y-87395977D01*
X141218391Y-87395977D01*
X141218391Y-87104023D01*
X142678161Y-87104023D01*
X142678161Y-86812069D01*
X142386207Y-86812069D01*
X142386207Y-86520115D01*
X142970115Y-86520115D01*
X142970115Y-87104023D01*
X143262069Y-87104023D01*
X143262069Y-87395977D01*
X142970115Y-87395977D01*
X142970115Y-87979885D01*
X143554023Y-87979885D01*
X143554023Y-88271839D01*
X143845977Y-88271839D01*
X144429885Y-88271839D01*
X144429885Y-89439655D01*
X144721839Y-89439655D01*
X145013793Y-89439655D01*
X145013793Y-89731609D01*
X145305747Y-89731609D01*
X145305747Y-89439655D01*
X145013793Y-89439655D01*
X144721839Y-89439655D01*
X144721839Y-89147701D01*
X145013793Y-89147701D01*
X145013793Y-88855747D01*
X145305747Y-88855747D01*
X145305747Y-88271839D01*
X144429885Y-88271839D01*
X143845977Y-88271839D01*
X143845977Y-87979885D01*
X143554023Y-87979885D01*
X143554023Y-87687931D01*
X144137931Y-87687931D01*
X144137931Y-87979885D01*
X145013793Y-87979885D01*
X145013793Y-87687931D01*
X144721839Y-87687931D01*
X144721839Y-87395977D01*
X145013793Y-87395977D01*
X145013793Y-87687931D01*
X145305747Y-87687931D01*
X145305747Y-87395977D01*
X145013793Y-87395977D01*
X144721839Y-87395977D01*
X144429885Y-87395977D01*
X144429885Y-87687931D01*
X144137931Y-87687931D01*
X144137931Y-87395977D01*
X143554023Y-87395977D01*
X143554023Y-87104023D01*
X143845977Y-87104023D01*
X143845977Y-86812069D01*
X143262069Y-86812069D01*
X143262069Y-86520115D01*
X142970115Y-86520115D01*
X142970115Y-85352299D01*
X143262069Y-85352299D01*
X143262069Y-86228161D01*
X143554023Y-86228161D01*
X143554023Y-85936207D01*
X143845977Y-85936207D01*
X143845977Y-86812069D01*
X144137931Y-86812069D01*
X144137931Y-86520115D01*
X144429885Y-86520115D01*
X144429885Y-86812069D01*
X144721839Y-86812069D01*
X144721839Y-87104023D01*
X145305747Y-87104023D01*
X145305747Y-86812069D01*
X144721839Y-86812069D01*
X144721839Y-86520115D01*
X145597701Y-86520115D01*
X145597701Y-87104023D01*
X145305747Y-87104023D01*
X145305747Y-87395977D01*
X145889655Y-87395977D01*
X145889655Y-87979885D01*
X145597701Y-87979885D01*
X145597701Y-87687931D01*
X145305747Y-87687931D01*
X145305747Y-88271839D01*
X146473563Y-88271839D01*
X146473563Y-88271839D01*
G37*
X146473563Y-88271839D02*
X146473563Y-88563793D01*
X145597701Y-88563793D01*
X145597701Y-88855747D01*
X145889655Y-88855747D01*
X145889655Y-89147701D01*
X145597701Y-89147701D01*
X145597701Y-89731609D01*
X145305747Y-89731609D01*
X145305747Y-90023563D01*
X145013793Y-90023563D01*
X145013793Y-90315517D01*
X144721839Y-90315517D01*
X144721839Y-90023563D01*
X144429885Y-90023563D01*
X144429885Y-90315517D01*
X144137931Y-90315517D01*
X144137931Y-89731609D01*
X144721839Y-89731609D01*
X144721839Y-90023563D01*
X145013793Y-90023563D01*
X145013793Y-89731609D01*
X144721839Y-89731609D01*
X144137931Y-89731609D01*
X143845977Y-89731609D01*
X143845977Y-89439655D01*
X144137931Y-89439655D01*
X144137931Y-89147701D01*
X143845977Y-89147701D01*
X143845977Y-88855747D01*
X144137931Y-88855747D01*
X144137931Y-88563793D01*
X143554023Y-88563793D01*
X143554023Y-89147701D01*
X143262069Y-89147701D01*
X143262069Y-88563793D01*
X142970115Y-88563793D01*
X142970115Y-88271839D01*
X143262069Y-88271839D01*
X143262069Y-88563793D01*
X143554023Y-88563793D01*
X143554023Y-88271839D01*
X143262069Y-88271839D01*
X142970115Y-88271839D01*
X142970115Y-87979885D01*
X142094253Y-87979885D01*
X142094253Y-87395977D01*
X142386207Y-87395977D01*
X142386207Y-87687931D01*
X142678161Y-87687931D01*
X142678161Y-87395977D01*
X142386207Y-87395977D01*
X142094253Y-87395977D01*
X141218391Y-87395977D01*
X141218391Y-87104023D01*
X142678161Y-87104023D01*
X142678161Y-86812069D01*
X142386207Y-86812069D01*
X142386207Y-86520115D01*
X142970115Y-86520115D01*
X142970115Y-87104023D01*
X143262069Y-87104023D01*
X143262069Y-87395977D01*
X142970115Y-87395977D01*
X142970115Y-87979885D01*
X143554023Y-87979885D01*
X143554023Y-88271839D01*
X143845977Y-88271839D01*
X144429885Y-88271839D01*
X144429885Y-89439655D01*
X144721839Y-89439655D01*
X145013793Y-89439655D01*
X145013793Y-89731609D01*
X145305747Y-89731609D01*
X145305747Y-89439655D01*
X145013793Y-89439655D01*
X144721839Y-89439655D01*
X144721839Y-89147701D01*
X145013793Y-89147701D01*
X145013793Y-88855747D01*
X145305747Y-88855747D01*
X145305747Y-88271839D01*
X144429885Y-88271839D01*
X143845977Y-88271839D01*
X143845977Y-87979885D01*
X143554023Y-87979885D01*
X143554023Y-87687931D01*
X144137931Y-87687931D01*
X144137931Y-87979885D01*
X145013793Y-87979885D01*
X145013793Y-87687931D01*
X144721839Y-87687931D01*
X144721839Y-87395977D01*
X145013793Y-87395977D01*
X145013793Y-87687931D01*
X145305747Y-87687931D01*
X145305747Y-87395977D01*
X145013793Y-87395977D01*
X144721839Y-87395977D01*
X144429885Y-87395977D01*
X144429885Y-87687931D01*
X144137931Y-87687931D01*
X144137931Y-87395977D01*
X143554023Y-87395977D01*
X143554023Y-87104023D01*
X143845977Y-87104023D01*
X143845977Y-86812069D01*
X143262069Y-86812069D01*
X143262069Y-86520115D01*
X142970115Y-86520115D01*
X142970115Y-85352299D01*
X143262069Y-85352299D01*
X143262069Y-86228161D01*
X143554023Y-86228161D01*
X143554023Y-85936207D01*
X143845977Y-85936207D01*
X143845977Y-86812069D01*
X144137931Y-86812069D01*
X144137931Y-86520115D01*
X144429885Y-86520115D01*
X144429885Y-86812069D01*
X144721839Y-86812069D01*
X144721839Y-87104023D01*
X145305747Y-87104023D01*
X145305747Y-86812069D01*
X144721839Y-86812069D01*
X144721839Y-86520115D01*
X145597701Y-86520115D01*
X145597701Y-87104023D01*
X145305747Y-87104023D01*
X145305747Y-87395977D01*
X145889655Y-87395977D01*
X145889655Y-87979885D01*
X145597701Y-87979885D01*
X145597701Y-87687931D01*
X145305747Y-87687931D01*
X145305747Y-88271839D01*
X146473563Y-88271839D01*
G36*
X146473563Y-90315517D02*
X146181609Y-90315517D01*
X146181609Y-90023563D01*
X146473563Y-90023563D01*
X146473563Y-90315517D01*
X146473563Y-90315517D01*
G37*
X146473563Y-90315517D02*
X146181609Y-90315517D01*
X146181609Y-90023563D01*
X146473563Y-90023563D01*
X146473563Y-90315517D01*
G36*
X141802299Y-86812069D02*
X141510345Y-86812069D01*
X141510345Y-86520115D01*
X141802299Y-86520115D01*
X141802299Y-86812069D01*
X141802299Y-86812069D01*
G37*
X141802299Y-86812069D02*
X141510345Y-86812069D01*
X141510345Y-86520115D01*
X141802299Y-86520115D01*
X141802299Y-86812069D01*
G36*
X142678161Y-86228161D02*
X140634483Y-86228161D01*
X140634483Y-84476437D01*
X140926437Y-84476437D01*
X140926437Y-85936207D01*
X142386207Y-85936207D01*
X142386207Y-84476437D01*
X140926437Y-84476437D01*
X140634483Y-84476437D01*
X140634483Y-84184483D01*
X142678161Y-84184483D01*
X142678161Y-86228161D01*
X142678161Y-86228161D01*
G37*
X142678161Y-86228161D02*
X140634483Y-86228161D01*
X140634483Y-84476437D01*
X140926437Y-84476437D01*
X140926437Y-85936207D01*
X142386207Y-85936207D01*
X142386207Y-84476437D01*
X140926437Y-84476437D01*
X140634483Y-84476437D01*
X140634483Y-84184483D01*
X142678161Y-84184483D01*
X142678161Y-86228161D01*
G36*
X146765517Y-86228161D02*
X144721839Y-86228161D01*
X144721839Y-84476437D01*
X145013793Y-84476437D01*
X145013793Y-85936207D01*
X146473563Y-85936207D01*
X146473563Y-84476437D01*
X145013793Y-84476437D01*
X144721839Y-84476437D01*
X144721839Y-84184483D01*
X146765517Y-84184483D01*
X146765517Y-86228161D01*
X146765517Y-86228161D01*
G37*
X146765517Y-86228161D02*
X144721839Y-86228161D01*
X144721839Y-84476437D01*
X145013793Y-84476437D01*
X145013793Y-85936207D01*
X146473563Y-85936207D01*
X146473563Y-84476437D01*
X145013793Y-84476437D01*
X144721839Y-84476437D01*
X144721839Y-84184483D01*
X146765517Y-84184483D01*
X146765517Y-86228161D01*
G36*
X144429885Y-85060345D02*
X144137931Y-85060345D01*
X144137931Y-84768391D01*
X144429885Y-84768391D01*
X144429885Y-85060345D01*
X144429885Y-85060345D01*
G37*
X144429885Y-85060345D02*
X144137931Y-85060345D01*
X144137931Y-84768391D01*
X144429885Y-84768391D01*
X144429885Y-85060345D01*
G36*
X144137931Y-84768391D02*
X143845977Y-84768391D01*
X143845977Y-84476437D01*
X144137931Y-84476437D01*
X144137931Y-84768391D01*
X144137931Y-84768391D01*
G37*
X144137931Y-84768391D02*
X143845977Y-84768391D01*
X143845977Y-84476437D01*
X144137931Y-84476437D01*
X144137931Y-84768391D01*
G36*
X144429885Y-84476437D02*
X144137931Y-84476437D01*
X144137931Y-84184483D01*
X144429885Y-84184483D01*
X144429885Y-84476437D01*
X144429885Y-84476437D01*
G37*
X144429885Y-84476437D02*
X144137931Y-84476437D01*
X144137931Y-84184483D01*
X144429885Y-84184483D01*
X144429885Y-84476437D01*
G36*
X142094253Y-89731609D02*
X141218391Y-89731609D01*
X141218391Y-88855747D01*
X142094253Y-88855747D01*
X142094253Y-89731609D01*
X142094253Y-89731609D01*
G37*
X142094253Y-89731609D02*
X141218391Y-89731609D01*
X141218391Y-88855747D01*
X142094253Y-88855747D01*
X142094253Y-89731609D01*
G36*
X143554023Y-87687931D02*
X143262069Y-87687931D01*
X143262069Y-87395977D01*
X143554023Y-87395977D01*
X143554023Y-87687931D01*
X143554023Y-87687931D01*
G37*
X143554023Y-87687931D02*
X143262069Y-87687931D01*
X143262069Y-87395977D01*
X143554023Y-87395977D01*
X143554023Y-87687931D01*
G36*
X142094253Y-85644253D02*
X141218391Y-85644253D01*
X141218391Y-84768391D01*
X142094253Y-84768391D01*
X142094253Y-85644253D01*
X142094253Y-85644253D01*
G37*
X142094253Y-85644253D02*
X141218391Y-85644253D01*
X141218391Y-84768391D01*
X142094253Y-84768391D01*
X142094253Y-85644253D01*
G36*
X146181609Y-85644253D02*
X145305747Y-85644253D01*
X145305747Y-84768391D01*
X146181609Y-84768391D01*
X146181609Y-85644253D01*
X146181609Y-85644253D01*
G37*
X146181609Y-85644253D02*
X145305747Y-85644253D01*
X145305747Y-84768391D01*
X146181609Y-84768391D01*
X146181609Y-85644253D01*
D12*
X162502381Y-73570333D02*
X163216667Y-73570333D01*
X163359524Y-73617953D01*
X163454762Y-73713191D01*
X163502381Y-73856048D01*
X163502381Y-73951286D01*
X162597619Y-73141762D02*
X162550000Y-73094143D01*
X162502381Y-72998905D01*
X162502381Y-72760809D01*
X162550000Y-72665571D01*
X162597619Y-72617952D01*
X162692857Y-72570333D01*
X162788095Y-72570333D01*
X162930952Y-72617952D01*
X163502381Y-73189381D01*
X163502381Y-72570333D01*
M02*
