G04 #@! TF.FileFunction,Soldermask,Bot*
%FSLAX46Y46*%
G04 Gerber Fmt 4.6, Leading zero omitted, Abs format (unit mm)*
G04 Created by KiCad (PCBNEW 4.0.6-e0-6349~53~ubuntu14.04.1) date Sat Apr 15 21:56:29 2017*
%MOMM*%
%LPD*%
G01*
G04 APERTURE LIST*
%ADD10C,0.100000*%
%ADD11C,0.650240*%
%ADD12R,0.650240X4.599940*%
%ADD13R,0.650240X3.599180*%
%ADD14C,0.750000*%
%ADD15C,0.254000*%
G04 APERTURE END LIST*
D10*
D11*
X140500400Y-102301240D03*
D12*
X159499600Y-100000000D03*
X158498840Y-100000000D03*
X157500620Y-100000000D03*
X156499860Y-100000000D03*
X155499100Y-100000000D03*
X154500880Y-100000000D03*
X153500120Y-100000000D03*
X152499360Y-100000000D03*
X151501140Y-100000000D03*
X150500380Y-100000000D03*
X149499620Y-100000000D03*
X144500900Y-100000000D03*
X143500140Y-100000000D03*
X142499380Y-100000000D03*
D13*
X141501160Y-99499620D03*
D12*
X140500400Y-100000000D03*
X146499880Y-100000000D03*
X145499120Y-100000000D03*
D11*
X157500620Y-102301240D03*
X156499860Y-102301240D03*
X155499100Y-102301240D03*
X154500880Y-102301240D03*
X153500120Y-102301240D03*
X152499360Y-102301240D03*
X151501140Y-102301240D03*
X150500380Y-102301240D03*
X149499620Y-102301240D03*
X159499600Y-102301240D03*
X146499880Y-102301240D03*
X145499120Y-102301240D03*
X144500900Y-102301240D03*
X143500140Y-102301240D03*
X142499380Y-102301240D03*
X158498840Y-102301240D03*
D14*
X163685000Y-76285000D03*
X162415000Y-76285000D03*
X163685000Y-87715000D03*
X163685000Y-77555000D03*
X162415000Y-77555000D03*
X163685000Y-78825000D03*
X162415000Y-78825000D03*
X163685000Y-80095000D03*
X162415000Y-80095000D03*
X163685000Y-81365000D03*
X162415000Y-81365000D03*
X163685000Y-82635000D03*
X162415000Y-82635000D03*
X163685000Y-83905000D03*
X162415000Y-83905000D03*
X163685000Y-85175000D03*
X162415000Y-85175000D03*
X163685000Y-86445000D03*
X162415000Y-86445000D03*
X162415000Y-87715000D03*
D15*
G36*
X160023000Y-103298000D02*
X139977000Y-103298000D01*
X139977000Y-97602000D01*
X160023000Y-97602000D01*
X160023000Y-103298000D01*
X160023000Y-103298000D01*
G37*
X160023000Y-103298000D02*
X139977000Y-103298000D01*
X139977000Y-97602000D01*
X160023000Y-97602000D01*
X160023000Y-103298000D01*
M02*
